<svg width="74" height="12" viewBox="0 0 74 12" fill="none" xmlns="http://www.w3.org/2000/svg">
<path d="M1 10.1381C3.97931 5.21039 7.84687 -1.06468 14.3303 1.76854C19.1469 3.87338 19.8744 9.81107 25.8905 9.6458C32.0649 9.47618 36.1602 4.24839 41.3226 1.76854C46.7399 -0.833733 50.5 5.36926 54.7358 7.92265C61.5 12.0001 64.5 7.50005 68.9781 3.98402C73.686 0.287531 66.1974 1.76854 64 1.76854C62.3052 1.76854 65.1138 1.2087 65.9636 1.38562C67.9772 1.80488 70.7334 0.822731 72.4351 1.30357C72.8977 1.43429 71.2325 4.04472 71.1076 4.449C70.3454 6.91602 69.7248 8.46979 69.7248 11.1228" stroke="url(#paint0_linear_4529_21981)" stroke-width="1.5" stroke-linecap="round"/>
<defs>
<linearGradient id="paint0_linear_4529_21981" x1="1" y1="10" x2="70" y2="10" gradientUnits="userSpaceOnUse">
<stop stop-color="#315BF0" stop-opacity="0.2"/>
<stop offset="1" stop-color="#315BF0"/>
</linearGradient>
</defs>
</svg>
