<svg width="24" height="24" viewBox="0 0 24 24" fill="none" xmlns="http://www.w3.org/2000/svg">
<path fill-rule="evenodd" clip-rule="evenodd" d="M16 18.458V18.7497C16 21.0509 14.2091 22.9163 12 22.9163C9.79086 22.9163 8 21.0509 8 18.7497V18.458H11.7893C11.8561 18.4783 11.9268 18.4893 12 18.4893C12.0732 18.4893 12.1439 18.4783 12.2107 18.458H16ZM16 16.958V16.4463C16 15.7652 16.3334 15.1417 16.8085 14.6738C18.158 13.3446 19 11.462 19 9.37467C19 5.3476 15.866 2.08301 12 2.08301C8.13401 2.08301 5 5.3476 5 9.37467C5 11.462 5.84201 13.3446 7.19153 14.6738C7.66659 15.1417 8 15.7652 8 16.4463V16.958H11.25V11.7816L9.46967 9.9271C9.17678 9.622 9.17678 9.12734 9.46967 8.82225C9.76256 8.51715 10.2374 8.51715 10.5303 8.82225L12 10.3532L13.4697 8.82225C13.7626 8.51715 14.2374 8.51715 14.5303 8.82225C14.8232 9.12734 14.8232 9.622 14.5303 9.9271L12.75 11.7816V16.958H16Z" fill="white"/>
</svg>
