<svg width="18" height="16" viewBox="0 0 18 16" fill="none" xmlns="http://www.w3.org/2000/svg">
<path fill-rule="evenodd" clip-rule="evenodd" d="M6.0053 1.24217L4.83341 3H4.00008C2.15913 3 0.666748 4.49238 0.666748 6.33333V12.1667C0.666748 14.0076 2.15913 15.5 4.00008 15.5H14.0001C15.841 15.5 17.3334 14.0076 17.3334 12.1667V6.33333C17.3334 4.49238 15.841 3 14.0001 3H13.1667L11.9949 1.24217C11.6857 0.778502 11.1654 0.5 10.6081 0.5H7.39205C6.8348 0.5 6.31441 0.778502 6.0053 1.24217ZM11.5001 9.25C11.5001 10.6307 10.3808 11.75 9.00008 11.75C7.61937 11.75 6.50008 10.6307 6.50008 9.25C6.50008 7.86929 7.61937 6.75 9.00008 6.75C10.3808 6.75 11.5001 7.86929 11.5001 9.25ZM9.00008 3.83333C9.46032 3.83333 9.83342 3.46024 9.83342 3C9.83342 2.53976 9.46032 2.16667 9.00008 2.16667C8.53984 2.16667 8.16675 2.53976 8.16675 3C8.16675 3.46024 8.53984 3.83333 9.00008 3.83333Z" fill="white"/>
</svg>
