<svg width="41" height="31" viewBox="0 0 41 31" fill="none" xmlns="http://www.w3.org/2000/svg">
<g clip-path="url(#clip0_4529_21968)">
<rect x="0.426758" y="0.108032" width="39.9739" height="30.7491" rx="4.91986" fill="white" fill-opacity="0.24"/>
<path fill-rule="evenodd" clip-rule="evenodd" d="M12.7264 30.8572H13.9564V0.108032H12.7264V8.10281H0.426758V9.33277H12.7264V15.4826H0.426758V16.7126H12.7264V22.8624H0.426758V24.0924H12.7264V30.8572Z" fill="white" fill-opacity="0.64"/>
<path fill-rule="evenodd" clip-rule="evenodd" d="M26.4228 15.4826L26.5164 15.258L26.5298 15.226C27.3289 13.309 28.1356 11.374 28.8151 9.33276H39.1709V8.1028H29.2041C30.0115 5.40144 30.5612 2.49281 30.5612 -0.814453H29.3312C29.3312 5.29497 27.3819 9.9853 25.3812 14.7847L25.3678 14.8167C25.2754 15.0384 25.1829 15.2603 25.0905 15.4826H25.0263V15.6371C23.1491 20.1598 21.3364 24.8512 21.3364 30.8572H22.5664C22.5664 28.4068 22.88 26.1847 23.3847 24.0923H39.1709V22.8624H23.7064C24.3067 20.7299 25.0885 18.7173 25.9129 16.7126H39.1709V15.4826H26.4228Z" fill="white" fill-opacity="0.64"/>
</g>
<rect x="1.04174" y="0.723015" width="38.7439" height="29.5192" rx="4.30488" stroke="white" stroke-opacity="0.64" stroke-width="1.22997"/>
<defs>
<clipPath id="clip0_4529_21968">
<rect x="0.426758" y="0.108032" width="39.9739" height="30.7491" rx="4.91986" fill="white"/>
</clipPath>
</defs>
</svg>
