<svg width="16" height="17" viewBox="0 0 16 17" fill="none" xmlns="http://www.w3.org/2000/svg">
<path d="M8 10.3333C7.72667 10.3333 7.5 10.1067 7.5 9.83333V6.5C7.5 6.22667 7.72667 6 8 6C8.27333 6 8.5 6.22667 8.5 6.5V9.83333C8.5 10.1067 8.27333 10.3333 8 10.3333Z" fill="#F33B39"/>
<path d="M7.99992 12.5003C7.95992 12.5003 7.91325 12.4937 7.86659 12.487C7.82659 12.4803 7.78659 12.467 7.74659 12.447C7.70659 12.4337 7.66659 12.4137 7.62659 12.387C7.59325 12.3603 7.55992 12.3337 7.52659 12.307C7.40659 12.1803 7.33325 12.007 7.33325 11.8337C7.33325 11.6603 7.40659 11.487 7.52659 11.3603C7.55992 11.3337 7.59325 11.307 7.62659 11.2803C7.66659 11.2537 7.70659 11.2337 7.74659 11.2203C7.78659 11.2003 7.82659 11.187 7.86659 11.1803C7.95325 11.1603 8.04659 11.1603 8.12659 11.1803C8.17325 11.187 8.21325 11.2003 8.25325 11.2203C8.29325 11.2337 8.33325 11.2537 8.37325 11.2803C8.40659 11.307 8.43992 11.3337 8.47325 11.3603C8.59325 11.487 8.66659 11.6603 8.66659 11.8337C8.66659 12.007 8.59325 12.1803 8.47325 12.307C8.43992 12.3337 8.40659 12.3603 8.37325 12.387C8.33325 12.4137 8.29325 12.4337 8.25325 12.447C8.21325 12.467 8.17325 12.4803 8.12659 12.487C8.08659 12.4937 8.03992 12.5003 7.99992 12.5003Z" fill="#F33B39"/>
<path d="M12.0402 15.2732H3.96023C2.66023 15.2732 1.66689 14.7999 1.16023 13.9466C0.660228 13.0932 0.726895 11.9932 1.36023 10.8532L5.40023 3.58656C6.0669 2.38656 6.9869 1.72656 8.00023 1.72656C9.01356 1.72656 9.93356 2.38656 10.6002 3.58656L14.6402 10.8599C15.2736 11.9999 15.3469 13.0932 14.8402 13.9532C14.3336 14.7999 13.3402 15.2732 12.0402 15.2732ZM8.00023 2.72656C7.37356 2.72656 6.76023 3.20656 6.27356 4.07323L2.24023 11.3466C1.78689 12.1599 1.71356 12.9066 2.02689 13.4466C2.34023 13.9866 3.03356 14.2799 3.96689 14.2799H12.0469C12.9802 14.2799 13.6669 13.9866 13.9869 13.4466C14.3069 12.9066 14.2269 12.1666 13.7736 11.3466L9.7269 4.07323C9.24023 3.20656 8.62689 2.72656 8.00023 2.72656Z" fill="#F33B39"/>
</svg>
