<svg width="80" height="80" viewBox="0 0 80 80" fill="none" xmlns="http://www.w3.org/2000/svg">
<path d="M16.6667 26.6667V60.0001C16.6667 67.3639 22.6362 73.3334 30 73.3334H50C57.3638 73.3334 63.3333 67.3639 63.3333 60.0001V26.6667M46.6667 36.6667V56.6667M33.3333 36.6667L33.3333 56.6667M53.3333 16.6667L48.6458 9.63541C47.4093 7.78076 45.3278 6.66675 43.0988 6.66675H36.9012C34.6722 6.66675 32.5907 7.78075 31.3542 9.63541L26.6667 16.6667M53.3333 16.6667H26.6667M53.3333 16.6667H70M26.6667 16.6667H10" stroke="#5B6283" stroke-width="2" stroke-linecap="round" stroke-linejoin="round"/>
<path d="M33 8L28 16H53L45.5 7L33 8Z" fill="#315BF0"/>
<path d="M53.3333 16.6667L48.6458 9.63541C47.4093 7.78076 45.3278 6.66675 43.0988 6.66675H36.9012C34.6722 6.66675 32.5907 7.78075 31.3542 9.63541L26.6667 16.6667M53.3333 16.6667H26.6667M53.3333 16.6667H70M26.6667 16.6667H10" stroke="white" stroke-width="2" stroke-linecap="round" stroke-linejoin="round"/>
</svg>
