<svg width="80" height="80" viewBox="0 0 80 80" fill="none" xmlns="http://www.w3.org/2000/svg">
<path d="M66.6673 53.3332H23.334C17.8111 53.3332 13.334 57.8103 13.334 63.3332M13.334 63.3332C13.334 68.856 17.8111 73.3332 23.334 73.3332H56.6673C62.1902 73.3332 66.6673 68.856 66.6673 63.3332V16.6665C66.6673 11.1437 62.1902 6.6665 56.6673 6.6665H23.334C17.8111 6.6665 13.334 11.1437 13.334 16.6665V63.3332Z" stroke="#5B6283" stroke-width="2"/>
<path fill-rule="evenodd" clip-rule="evenodd" d="M49.9165 14.7708C49.3297 14.7708 48.854 15.2464 48.854 15.8333C48.854 16.4201 49.3297 16.8958 49.9165 16.8958H51.4926C46.1879 21.1261 42.1514 23.8051 38.3135 25.5852C34.3504 27.4233 30.5487 28.3262 25.6985 28.946C25.1164 29.0204 24.7048 29.5525 24.7792 30.1346C24.8536 30.7167 25.3857 31.1282 25.9678 31.0539C30.9522 30.4169 34.9836 29.4721 39.2076 27.5129C43.3377 25.5974 47.6031 22.7347 53.104 18.3282V20.0833C53.104 20.6701 53.5797 21.1458 54.1665 21.1458C54.7533 21.1458 55.229 20.6701 55.229 20.0833V17.2499C55.229 15.8807 54.119 14.7708 52.7498 14.7708H49.9165ZM54.1665 27.1666C54.1665 25.6018 52.898 24.3333 51.3332 24.3333C49.7684 24.3333 48.4998 25.6018 48.4998 27.1666V41.3333C48.4998 42.8981 49.7684 44.1666 51.3332 44.1666C52.898 44.1666 54.1665 42.8981 54.1665 41.3333V27.1666ZM31.4998 38.4999C31.4998 36.9351 30.2313 35.6666 28.6665 35.6666C27.1017 35.6666 25.8332 36.9351 25.8332 38.4999L25.8332 41.3333C25.8332 42.8981 27.1017 44.1666 28.6665 44.1666C30.2313 44.1666 31.4998 42.8981 31.4998 41.3333L31.4998 38.4999ZM39.9998 29.9999C41.5647 29.9999 42.8332 31.2684 42.8332 32.8333V41.3333C42.8332 42.8981 41.5647 44.1666 39.9998 44.1666C38.435 44.1666 37.1665 42.8981 37.1665 41.3333L37.1665 32.8333C37.1665 31.2684 38.435 29.9999 39.9998 29.9999Z" fill="white"/>
</svg>
