<svg width="53" height="60" viewBox="0 0 53 60" fill="none" xmlns="http://www.w3.org/2000/svg">
<path fill-rule="evenodd" clip-rule="evenodd" d="M21.2893 35.3217C20.9918 34.8708 20.6697 34.462 20.2935 34.0842C19.6223 33.4101 18.9996 32.6879 18.3419 31.9999C17.913 31.5513 17.5155 31.0802 17.1895 30.5532C16.9236 30.1235 16.6946 29.6761 16.7402 29.1433C16.7618 28.8916 16.9947 28.597 17.2337 28.5146C17.3922 28.4599 17.5192 28.4843 17.6493 28.5959C18.029 28.9213 18.403 29.2506 18.7417 29.6209C19.2471 30.1736 19.7642 30.7154 20.2831 31.2554C20.7869 31.7796 21.2933 32.3013 21.8109 32.8116C21.937 32.936 22.0645 33.0937 22.3156 33.098C22.2933 32.9649 22.2958 32.8409 22.2514 32.7366C22.0129 32.1768 21.7711 31.6182 21.5148 31.0664C21.1961 30.3799 20.8588 29.7021 20.5358 29.0175C20.2798 28.4752 20.0466 27.9218 19.7775 27.3863C19.6426 27.1177 19.5512 26.8355 19.4329 26.5627C19.3215 26.3062 19.4036 26.1162 19.5816 25.9396C19.7718 25.7511 20.0531 25.6873 20.2704 25.7872C20.4912 25.8886 20.6833 26.028 20.8299 26.225C21.2293 26.7619 21.5583 27.3342 21.8168 27.9563C22.0615 28.5455 22.343 29.1257 22.6693 29.6736C23.0308 30.2803 23.4095 30.8859 23.9497 31.362C24.1823 31.5669 24.4081 31.7779 24.7232 31.8635C25.0397 31.9493 25.3138 31.8183 25.3282 31.4903C25.3483 31.0272 25.3083 30.5611 25.2854 30.0967C25.2785 29.9565 25.2387 29.8181 25.2223 29.6779C25.1717 29.2462 25.1515 28.8092 25.0715 28.3834C24.8943 27.4402 24.8736 26.4937 24.9705 25.5448C24.9886 25.3684 25.0923 25.1816 25.2059 25.0388C25.365 24.8391 25.659 24.8683 25.8907 25.1046C26.0274 25.244 26.1514 25.414 26.2248 25.5933C26.4065 26.0364 26.5755 26.4866 26.712 26.9452C26.8326 27.3497 26.8819 27.7752 26.9999 28.1806C27.1347 28.6427 27.1533 29.1329 27.362 29.5776C27.4374 29.7382 27.4524 29.9267 27.499 30.1014C27.6309 30.5958 27.7457 31.0958 27.9038 31.5817C28.0454 32.0175 28.2426 32.4341 28.5059 32.8142C28.8243 33.274 29.4187 33.4151 29.8973 33.2834C30.3582 33.1566 30.7867 32.9685 31.1697 32.7048C31.6036 32.4062 31.9818 32.0329 32.3377 31.6379C32.7436 31.1875 33.0325 30.6688 33.3335 30.1492C33.5201 29.827 33.8041 29.5555 34.1888 29.4296C34.3479 29.3775 34.4783 29.2603 34.6687 29.2773C34.9325 29.3009 35.2935 29.5322 35.3584 29.7833C35.4276 30.0501 35.4342 30.3201 35.3022 30.5801C35.1717 30.8374 35.0234 31.0797 34.8616 31.3207C34.3892 32.0251 33.9137 32.7283 33.4884 33.4646C33.2035 33.9577 32.9703 34.4739 32.7062 34.9756C32.4028 35.5515 32.2119 36.1727 31.9444 36.7606C31.6939 37.3109 31.5427 37.8905 31.3459 38.4558C31.1688 38.9649 31.0495 39.4946 30.9168 40.0184C30.7983 40.4859 30.6899 40.9562 30.59 41.4279C30.5357 41.6841 30.4885 41.9447 30.4733 42.2052C30.4475 42.6515 30.3331 43.0871 30.3018 43.5274C30.229 44.5584 30.1789 45.5935 30.1805 46.6268C30.1824 47.7619 30.2324 48.898 30.3002 50.0312C30.3421 50.7261 30.4571 51.4167 30.5389 52.1092C30.5448 52.1595 30.5469 52.2102 30.5514 52.2608C30.6022 52.8351 30.6424 53.4107 30.707 53.9834C30.776 54.5954 30.8554 55.2068 30.9534 55.8147C31.0479 56.3995 31.1768 56.9789 31.2818 57.5622C31.3426 57.8996 31.379 58.2413 31.4387 58.579C31.4965 58.9059 31.5728 59.2295 31.6355 59.5555C31.6599 59.6827 31.6696 59.8127 31.6891 59.9667C31.5905 59.9793 31.5149 59.9972 31.4392 59.9973C28.9336 59.9988 26.4279 59.9991 23.9223 59.9978C23.6332 59.9977 23.6253 59.9842 23.6598 59.706C23.6636 59.6759 23.669 59.6457 23.6712 59.6154C23.7235 58.8882 23.77 58.1603 23.8292 57.4337C23.8868 56.7278 23.9573 56.0228 24.0221 55.3175C24.0249 55.2872 24.0315 55.2572 24.0335 55.227C24.0846 54.4587 24.1402 53.6909 24.1843 52.9222C24.2052 52.558 24.1918 52.1915 24.3036 51.8373C24.3217 51.78 24.3276 51.7176 24.331 51.6571C24.3786 50.807 24.4324 49.9573 24.4696 49.1067C24.5383 47.5266 24.6121 45.9465 24.6528 44.3656C24.6698 43.7085 24.6448 43.045 24.569 42.3926C24.5117 41.8991 24.3617 41.4127 24.1336 40.9604C23.9716 40.6392 23.8474 40.2914 23.6413 40.0018C23.3659 39.6149 23.1027 39.2112 22.7288 38.9001C22.5683 38.7666 22.441 38.5938 22.2854 38.4535C22.1376 38.3203 21.9728 38.2057 21.8151 38.0834C21.3263 37.704 20.8126 37.3634 20.2789 37.0488C19.7217 36.7205 19.1818 36.3629 18.6383 36.0118C18.1203 35.677 17.6917 35.2386 17.3103 34.7629C17.0817 34.4777 16.8704 34.1596 16.8646 33.7635C16.86 33.4536 16.9633 33.3176 17.2644 33.3204C17.4594 33.3223 17.6622 33.3711 17.8471 33.4382C18.4661 33.6628 18.9581 34.1009 19.5013 34.4529C19.928 34.7296 20.3529 35.0089 20.7805 35.2842C20.9374 35.3853 21.1007 35.4535 21.2893 35.3217Z" fill="#CC0001"/>
<path fill-rule="evenodd" clip-rule="evenodd" d="M25.739 15.0709C26.0838 15.0631 26.1578 15.1328 26.1241 15.4235C26.1081 15.562 26.0338 15.6944 26.0224 15.8326C25.9855 16.2853 25.9518 16.7343 26.0762 17.1878C26.1855 17.5864 26.3149 17.9739 26.4798 18.351C26.7029 18.862 26.9126 19.3796 27.1541 19.8816C27.5022 20.6048 27.6008 21.3655 27.5004 22.1471C27.4692 22.3902 27.4625 22.6783 27.2311 22.8602C27.1862 22.8955 27.1351 22.9318 27.0813 22.9452C26.925 22.9845 26.7669 23.02 26.6076 23.0431C26.2178 23.0994 25.8271 23.1481 25.4367 23.1993C25.4066 23.2032 25.3716 23.1954 25.3465 23.2079C25.0018 23.3799 24.6148 23.3437 24.2521 23.4307C23.9293 23.5082 23.5968 23.5514 23.2665 23.5899C23.0312 23.6173 22.9256 23.5087 22.9309 23.2729C22.9334 23.1622 22.9444 23.0478 22.9763 22.9425C23.1274 22.4447 23.0971 21.9546 22.9841 21.4507C22.8353 20.7874 22.4923 20.207 22.2485 19.5849C22.0777 19.1494 21.8591 18.7315 21.7067 18.2903C21.4877 17.6569 21.4839 16.9927 21.5781 16.3384C21.6124 16.1 21.6392 15.8006 21.9359 15.6807C22.0191 15.6471 22.1041 15.6116 22.1916 15.5955C22.4297 15.5515 22.6691 15.5137 22.909 15.4801C23.289 15.4268 23.6708 15.3851 24.0502 15.327C24.429 15.2689 24.805 15.1925 25.1835 15.1326C25.3832 15.1013 25.5858 15.0875 25.739 15.0709ZM22.9812 16.1006C22.8658 16.5034 22.6467 16.7677 22.2632 16.8745C22.1164 16.9153 22.0797 17.0373 22.0967 17.1615C22.1531 17.57 22.1973 17.9828 22.3592 18.3684C22.502 18.7081 22.6512 19.0447 22.8058 19.3794C23.0598 19.9291 23.3116 20.4841 23.4734 21.0776C23.5717 21.4385 23.6596 21.7948 23.6784 22.1652C23.7 22.5894 24.0017 22.8628 24.4199 22.8131C24.4701 22.8071 24.5198 22.7975 24.5699 22.7892C24.9867 22.72 25.4021 22.6386 25.821 22.5875C25.9934 22.5664 26.0885 22.517 26.151 22.3462C26.2227 22.1501 26.3437 21.9705 26.5288 21.8562C26.6705 21.7688 26.8223 21.6978 26.985 21.6115C26.933 21.2842 26.9216 20.9643 26.8263 20.6714C26.679 20.2181 26.4779 19.782 26.2932 19.3412C26.0895 18.8548 25.887 18.3674 25.6684 17.8875C25.4679 17.4473 25.4087 16.9733 25.3787 16.5069C25.3611 16.2316 25.2443 16.0617 25.0815 15.8894C24.9949 15.7978 24.8931 15.7756 24.7535 15.8051C24.3798 15.8843 23.9995 15.9326 23.622 15.994C23.4053 16.0293 23.1887 16.066 22.9812 16.1006Z" fill="#CC0001"/>
<path fill-rule="evenodd" clip-rule="evenodd" d="M31.4158 27.5206C31.2807 27.4808 31.0847 27.4337 30.8964 27.3659C30.2674 27.1389 29.6427 26.9 29.0129 26.6751C28.7209 26.5708 28.419 26.494 28.1255 26.3935C27.9755 26.342 27.8268 26.2779 27.6906 26.1973C27.5443 26.1103 27.5215 25.9242 27.6317 25.7781C27.7588 25.6093 27.8827 25.4334 28.0358 25.2899C28.2986 25.043 28.3992 24.7157 28.4916 24.3947C28.6853 23.7213 28.7504 23.0276 28.7566 22.3264C28.7589 22.086 28.8164 21.8461 28.8497 21.606C28.8663 21.4858 28.8944 21.3664 28.9022 21.2458C28.9451 20.6006 29.1306 19.9931 29.4673 19.4495C29.6485 19.1571 29.9201 18.9177 30.1705 18.6743C30.2219 18.6244 30.382 18.626 30.4544 18.6684C30.78 18.8583 31.147 18.9248 31.4942 19.0488C31.9833 19.2236 32.4725 19.398 32.9619 19.5716C33.2831 19.6853 33.605 19.7973 33.9266 19.9098C33.9648 19.923 34.0054 19.9299 34.0415 19.9471C34.3371 20.0877 34.3801 20.3237 34.1257 20.532C33.7373 20.8503 33.5645 21.3063 33.3355 21.7246C33.2557 21.8699 33.2272 22.0507 33.206 22.2192C33.1512 22.6504 33.1092 23.0833 33.0707 23.5162C33.0205 24.0807 33.0047 24.6495 32.9268 25.2097C32.8228 25.9572 32.5068 26.6258 32.0292 27.2094C31.8927 27.3764 31.734 27.5501 31.4158 27.5206ZM31.8636 26.3889C32.1381 26.0563 32.2309 25.6817 32.3048 25.3114C32.4039 24.816 32.4282 24.31 32.4607 23.8043C32.498 23.2244 32.494 22.6343 32.6852 22.0706C32.7881 21.7676 32.8282 21.4367 32.9702 21.1557C33.1013 20.8963 33.1222 20.6637 33.0537 20.3971C33.0208 20.2691 32.9752 20.1881 32.8361 20.1419C32.295 19.9623 31.759 19.7674 31.2221 19.5753C31.1348 19.5441 31.0735 19.5601 31.0047 19.6233C30.744 19.8627 30.4355 19.9638 30.0844 19.8995C29.9306 19.8714 29.847 19.9568 29.8 20.0694C29.6141 20.5146 29.4693 20.9762 29.4198 21.4559C29.3567 22.0697 29.3167 22.6866 29.2886 23.3031C29.2653 23.812 29.1391 24.2977 29.0018 24.7813C28.9624 24.9192 28.8708 25.0453 28.7892 25.1675C28.6333 25.4015 28.7251 25.6433 28.7927 25.8628C28.8241 25.9652 28.9919 26.0493 29.1151 26.0958C29.553 26.2613 30.0073 26.3861 30.4372 26.5691C30.6565 26.6624 30.7978 26.6325 30.9889 26.5106C31.2446 26.3473 31.5212 26.1494 31.8636 26.3889Z" fill="#CC0001"/>
<path fill-rule="evenodd" clip-rule="evenodd" d="M21.0339 23.1279C21.0675 23.3749 20.8973 23.4868 20.7344 23.5885C20.3641 23.8196 19.9844 24.0353 19.6132 24.265C19.2244 24.5055 18.8427 24.7577 18.4546 24.9994C18.2857 25.1047 18.1102 25.2 17.9342 25.2933C17.7619 25.3848 17.6568 25.345 17.5832 25.1578C17.5466 25.0642 17.5164 24.9645 17.5052 24.8651C17.4289 24.177 17.0768 23.6383 16.5996 23.1638C16.0201 22.5875 15.4224 22.0275 14.8718 21.4246C14.509 21.0273 14.2298 20.5607 14.1598 20.0015C14.1437 19.8722 14.0991 19.7466 14.0759 19.6178C14.0384 19.4086 14.1447 19.2702 14.3134 19.1678C14.9429 18.7849 15.5725 18.4028 16.2018 18.0201C16.4903 17.8447 16.7771 17.6665 17.0669 17.4936C17.3945 17.2981 17.5847 17.3919 17.5949 17.7761C17.6068 18.2273 17.7705 18.6318 18.0147 18.9834C18.2622 19.34 18.5696 19.6642 18.8914 19.9581C19.4523 20.47 20.0253 20.9704 20.4731 21.5859C20.6769 21.8661 20.8403 22.1845 20.9013 22.541C20.9351 22.7383 20.9891 22.9323 21.0339 23.1279ZM17.884 24.1902C17.9655 24.2245 18.041 24.2519 18.1126 24.287C18.3108 24.384 18.4806 24.3745 18.6757 24.2399C19.0185 24.0035 19.3879 23.8057 19.7447 23.5891C19.8527 23.5234 19.926 23.4397 19.9159 23.2949C19.897 23.0276 20.0029 22.7928 20.1889 22.616C20.3158 22.4956 20.3064 22.3669 20.2472 22.2617C20.0953 21.9918 19.9458 21.7075 19.7357 21.4857C19.2628 20.9866 18.7667 20.5076 18.2558 20.0475C17.8214 19.6566 17.5165 19.1826 17.2576 18.6718C17.1134 18.3875 16.7468 18.272 16.4731 18.4449C16.1033 18.6786 15.74 18.9227 15.3658 19.1482C15.2646 19.2091 15.2014 19.2743 15.2195 19.3842C15.2697 19.6906 15.0928 19.8973 14.9164 20.1032C14.7806 20.2617 14.7692 20.31 14.8641 20.4975C15.0371 20.8403 15.2783 21.1364 15.5444 21.4055C15.9859 21.8518 16.459 22.2672 16.9022 22.7122C17.3202 23.132 17.6843 23.5947 17.884 24.1902Z" fill="#CC0001"/>
<path fill-rule="evenodd" clip-rule="evenodd" d="M33.1973 26.6917C33.2788 26.6051 33.3342 26.5149 33.4146 26.4653C34.0958 26.0456 34.4918 25.4303 34.7269 24.6759C34.9587 23.9323 35.2024 23.1883 35.5089 22.4736C35.7632 21.8805 36.1929 21.4003 36.7873 21.1015C36.908 21.0409 37.0296 21.0457 37.1562 21.1287C37.555 21.3906 37.9628 21.6385 38.3651 21.8947C38.8523 22.2049 39.3377 22.5179 39.8231 22.8308C39.8731 22.8629 39.9212 22.8995 39.9636 22.941C40.0933 23.0679 40.0875 23.242 39.9453 23.3536C39.8748 23.409 39.7942 23.4512 39.7168 23.4973C39.4349 23.665 39.2219 23.8957 39.0392 24.1687C38.7292 24.6323 38.5496 25.1436 38.4023 25.6752C38.2772 26.1263 38.137 26.5745 37.9372 27.0006C37.853 27.1804 37.7628 27.3578 37.6851 27.5404C37.4852 28.0093 37.0934 28.3098 36.7234 28.6237C36.4391 28.865 36.3017 28.8319 35.9797 28.6035C35.6468 28.3673 35.291 28.1634 34.9487 27.9402C34.4242 27.5983 33.9013 27.2542 33.382 26.9047C33.3121 26.8578 33.2671 26.7742 33.1973 26.6917ZM36.4058 22.0493C36.0771 22.3474 35.9253 22.7635 35.7591 23.1506C35.5431 23.6535 35.4064 24.1923 35.2597 24.7223C35.1129 25.2526 34.8749 25.7343 34.5177 26.1459C34.3247 26.3685 34.3396 26.6052 34.356 26.8562C34.3589 26.9002 34.3911 26.9544 34.427 26.9818C34.5609 27.0843 34.6986 27.1825 34.8408 27.2731C35.1669 27.4805 35.4965 27.6824 35.8022 27.8726C35.9228 27.8259 36.03 27.7575 36.143 27.7468C36.3203 27.7301 36.5023 27.7431 36.6804 27.7611C36.8077 27.7741 36.9155 27.784 37.0007 27.6593C37.2035 27.3635 37.3864 27.0612 37.521 26.7243C37.7656 26.1114 37.8718 25.4562 38.1464 24.8498C38.3608 24.3759 38.5362 23.8924 38.9124 23.513C39.098 23.3256 39.0424 22.9599 38.8245 22.8162C38.4927 22.5976 38.1566 22.3847 37.8304 22.1582C37.6531 22.0354 37.4931 21.914 37.2722 22.0737C37.222 22.1102 37.134 22.1065 37.0644 22.1026C36.8536 22.0904 36.6435 22.0691 36.4058 22.0493Z" fill="#CC0001"/>
<path fill-rule="evenodd" clip-rule="evenodd" d="M42.0607 36.9121C41.9223 36.8961 41.7702 36.9163 41.657 36.8592C41.0216 36.5389 40.3704 36.5886 39.7092 36.7361C39.4538 36.7931 39.196 36.8383 38.9416 36.8988C38.6989 36.9564 38.4596 37.0288 38.2182 37.0912C37.5957 37.2518 36.9748 37.2281 36.3641 37.042C36.2176 36.9972 36.0957 36.8762 35.9573 36.7993C35.8473 36.738 35.8464 36.6367 35.8459 36.5369C35.8446 36.3037 35.8511 36.0705 35.8533 35.8373C35.8598 35.1375 35.8658 34.4378 35.872 33.738C35.8726 33.667 35.8682 33.5953 35.8768 33.5252C35.8985 33.3506 36.0299 33.2621 36.1984 33.3149C36.3699 33.3685 36.5381 33.4337 36.7071 33.4949C37.1923 33.6708 37.6793 33.6291 38.1693 33.5153C38.6095 33.4131 39.0559 33.3348 39.4921 33.2177C39.7158 33.1577 39.9363 33.1097 40.1657 33.0748C40.5216 33.0205 40.8667 33.0316 41.2204 33.0842C41.5268 33.1299 41.7802 33.2919 42.0526 33.4105C42.123 33.4412 42.1923 33.5715 42.1909 33.6548C42.174 34.6683 42.1444 35.6816 42.1151 36.695C42.1135 36.7536 42.0867 36.8116 42.0607 36.9121ZM36.8022 36.5994C37.102 36.7412 37.3827 36.765 37.6824 36.6935C37.9853 36.6214 38.2965 36.5848 38.6013 36.5197C38.8666 36.4629 39.127 36.3841 39.3915 36.322C39.6543 36.2602 39.9171 36.1878 40.184 36.1561C40.4241 36.1277 40.6787 36.1069 40.9105 36.1576C41.2037 36.2217 41.4314 36.1512 41.6494 35.9761C41.6571 35.97 41.661 35.9596 41.6972 35.9056C41.6972 35.4762 41.6949 35.0011 41.6984 34.5259C41.6995 34.3981 41.6385 34.3229 41.536 34.2589C41.3562 34.1464 41.2418 33.9742 41.2219 33.7693C41.204 33.5825 41.0951 33.5128 40.9482 33.5085C40.697 33.5013 40.4422 33.5062 40.1937 33.5408C39.8952 33.5825 39.5997 33.6522 39.3069 33.7252C39.0162 33.7976 38.7308 33.8912 38.4419 33.9714C38.3648 33.9929 38.2836 34.0009 38.204 34.0127C38.024 34.039 37.8445 34.0752 37.6636 34.0863C37.4835 34.0972 37.3017 34.088 37.1212 34.0767C37.0211 34.0705 36.9229 34.0313 36.8226 34.0265C36.6186 34.0165 36.3417 34.2376 36.3308 34.4227C36.3068 34.8374 36.293 35.2525 36.2733 35.6674C36.2675 35.7897 36.3068 35.894 36.4137 35.9506C36.6703 36.0865 36.7809 36.3074 36.8022 36.5994Z" fill="#CC0001"/>
<path fill-rule="evenodd" clip-rule="evenodd" d="M20.1646 15.1763C20.1495 15.7702 20.1502 15.7722 19.5553 15.9772C19.1665 16.1112 18.7742 16.2349 18.3858 16.3704C18.0004 16.5051 17.619 16.6508 17.2344 16.7878C17.0212 16.8638 16.86 16.7566 16.8934 16.5337C16.9332 16.2667 16.907 16.0107 16.869 15.7491C16.8362 15.526 16.7557 15.33 16.633 15.1414C16.4368 14.8404 16.2597 14.5272 16.0688 14.2225C15.9898 14.0963 15.8992 13.977 15.8093 13.8581C15.5604 13.5293 15.3841 13.1609 15.1978 12.7953C15.0038 12.4149 14.9247 12.0223 14.9367 11.6035C14.9465 11.2633 15.0635 11.1191 15.385 11.0111C15.9836 10.81 16.5805 10.6034 17.1758 10.3928C17.3432 10.3336 17.5003 10.2451 17.6672 10.1842C17.7608 10.15 17.8646 10.1323 17.9644 10.1293C18.1834 10.1226 18.2531 10.2004 18.2484 10.4203C18.245 10.5819 18.236 10.7437 18.2396 10.9051C18.2521 11.5174 18.5712 12.0079 18.8879 12.4956C19.1153 12.8458 19.3518 13.1911 19.6004 13.5265C19.8554 13.8704 19.9982 14.2605 20.1039 14.6659C20.1467 14.8301 20.1457 15.0059 20.1646 15.1763ZM19.6629 14.7562C19.5766 14.5286 19.5229 14.2979 19.4082 14.1033C19.161 13.684 18.8765 13.2869 18.6188 12.8736C18.3725 12.4779 18.0604 12.119 17.9251 11.6593C17.8684 11.4669 17.8209 11.2704 17.7449 11.0858C17.6452 10.8436 17.4104 10.7601 17.1672 10.857C17.1389 10.8682 17.11 10.8774 17.0815 10.8878C16.773 11.0003 16.462 11.1066 16.1576 11.2289C16.0621 11.2672 15.987 11.3281 15.9443 11.4562C15.8804 11.6469 15.7816 11.84 15.5908 11.954C15.4546 12.0354 15.4271 12.1669 15.4793 12.297C15.5945 12.5838 15.6982 12.8822 15.8618 13.1409C16.1535 13.6026 16.4949 14.0324 16.799 14.4868C17.0565 14.8721 17.2085 15.3069 17.3317 15.7525C17.4099 16.0362 17.6972 16.1675 17.9625 16.0658C18.252 15.9549 18.5406 15.8324 18.8405 15.76C19.0489 15.7098 19.1713 15.5959 19.2166 15.4148C19.2643 15.2235 19.3779 15.0998 19.5151 14.9774C19.5745 14.9246 19.6074 14.8421 19.6629 14.7562Z" fill="#CC0001"/>
<path fill-rule="evenodd" clip-rule="evenodd" d="M30.5482 17.2861C30.4766 17.2677 30.4163 17.258 30.3604 17.2369C30.0333 17.1134 29.7069 16.988 29.3808 16.8618C28.9813 16.7071 28.5827 16.5498 28.1828 16.3964C28.0523 16.3463 27.916 16.3111 27.7868 16.2588C27.5625 16.1681 27.5282 16.0361 27.6732 15.8481C27.784 15.7044 27.8871 15.5531 28.0101 15.4206C28.2321 15.1816 28.3144 14.8767 28.3655 14.5797C28.4458 14.1131 28.4519 13.6343 28.5144 13.1642C28.5794 12.6755 28.6134 12.1691 28.7746 11.7105C28.9121 11.3193 29.1206 10.9262 29.4706 10.6457C29.5856 10.5534 29.6972 10.5149 29.8294 10.5598C30.2928 10.717 30.773 10.8406 31.2102 11.0528C31.6278 11.2554 32.0792 11.3518 32.4938 11.5498C32.7508 11.6726 32.7771 11.7932 32.5647 11.9919C32.24 12.2954 32.0746 12.6733 31.9392 13.0928C31.7276 13.7492 31.7523 14.4269 31.6792 15.0949C31.6226 15.6116 31.5108 16.1131 31.2688 16.5663C31.1354 16.8159 30.8991 17.0119 30.7018 17.2251C30.6667 17.2632 30.5957 17.2682 30.5482 17.2861ZM29.984 16.6039C30.1516 16.4046 30.3626 16.3005 30.6022 16.3392C30.8236 16.3749 30.9166 16.276 30.9839 16.0989C31.0436 15.9408 31.1384 15.7887 31.1621 15.6258C31.2262 15.1863 31.2687 14.7432 31.3047 14.3003C31.361 13.6061 31.4235 12.9176 31.7543 12.2815C31.8098 12.1747 31.7656 12.0063 31.7419 11.8708C31.7189 11.7403 31.6142 11.6926 31.4856 11.6527C31.171 11.555 30.8655 11.4276 30.5548 11.317C30.4224 11.27 30.2816 11.2141 30.1541 11.3245C29.9857 11.4703 29.7851 11.4898 29.5824 11.4632C29.4336 11.4436 29.3376 11.5033 29.2969 11.6226C29.2029 11.8971 29.0969 12.1742 29.0559 12.4587C28.9868 12.939 28.9416 13.4252 28.9293 13.9101C28.9185 14.3331 28.7815 14.718 28.6537 15.107C28.5492 15.4247 28.3281 15.7234 28.5651 16.0748C29.0244 16.2462 29.4918 16.4204 29.984 16.6039Z" fill="#CC0001"/>
<path fill-rule="evenodd" clip-rule="evenodd" d="M27.2617 7.45854C27.3786 7.32882 27.4547 7.20734 27.5627 7.13088C27.9722 6.84152 28.24 6.45236 28.3814 5.98104C28.5196 5.52023 28.608 5.04384 28.7589 4.58773C28.9122 4.12452 29.0726 3.65357 29.311 3.23195C29.4775 2.93752 29.7701 2.70864 30.0272 2.47304C30.1844 2.32899 30.3859 2.35537 30.5662 2.45871C30.9031 2.65196 31.2369 2.85104 31.5725 3.04669C32.0022 3.29738 32.4348 3.543 32.8613 3.79876C33.1303 3.95993 33.1407 4.10727 32.9074 4.30787C32.7557 4.43835 32.5769 4.54335 32.4468 4.69183C32.1933 4.98107 32.0489 5.33295 31.9444 5.70182C31.8984 5.86387 31.8308 6.01971 31.7827 6.18126C31.6198 6.73006 31.4922 7.29167 31.2924 7.82652C31.1012 8.33842 30.7582 8.75497 30.2849 9.0541C30.1373 9.1473 30.0218 9.14476 29.872 9.05714C29.3384 8.74508 28.796 8.44811 28.2585 8.14251C28.0173 8.00544 27.7765 7.86672 27.5427 7.7176C27.4527 7.66003 27.3823 7.57152 27.2617 7.45854ZM30.5013 8.26551C30.5529 8.21137 30.611 8.16737 30.6473 8.10967C30.8944 7.71811 31.0201 7.27455 31.1677 6.84241C31.2678 6.54886 31.3354 6.24301 31.4011 5.93919C31.5162 5.40687 31.6931 4.91044 32.0551 4.48476C32.2894 4.20947 32.1866 3.88448 31.8553 3.72357C31.73 3.6627 31.6038 3.60234 31.4835 3.53209C31.3036 3.4271 31.1335 3.30398 30.949 3.20875C30.8767 3.17147 30.753 3.15067 30.6931 3.18757C30.4743 3.32312 30.2497 3.30334 30.0185 3.2615C29.9091 3.24172 29.8247 3.25478 29.7661 3.36725C29.6516 3.587 29.4879 3.78912 29.4147 4.02079C29.261 4.50746 29.1534 5.00871 29.0254 5.5035C28.9827 5.66859 28.9594 5.84434 28.8853 5.99448C28.7139 6.34179 28.5244 6.68086 28.3277 7.01473C28.1936 7.24247 28.2266 7.59574 28.4245 7.71227C28.8091 7.93874 29.1981 8.15773 29.5969 8.38648C29.8721 8.15989 30.1902 8.24421 30.5013 8.26551Z" fill="#CC0001"/>
<path fill-rule="evenodd" clip-rule="evenodd" d="M17.6127 5.6067C17.961 5.47786 18.2901 5.35613 18.6191 5.23466C18.9368 5.11724 19.2547 4.99982 19.5724 4.88278C19.8442 4.78273 20.1136 4.6747 20.3893 4.58758C20.4905 4.5555 20.6076 4.573 20.7484 4.56641C20.7623 4.66823 20.7924 4.75636 20.7833 4.84017C20.7068 5.55242 20.9575 6.16602 21.3498 6.73562C21.5702 7.0558 21.81 7.36266 22.0266 7.68537C22.3942 8.23291 22.6729 8.81797 22.7203 9.4899C22.7254 9.56053 22.7279 9.63192 22.7241 9.70255C22.6996 10.1646 22.6215 10.2617 22.186 10.4124C21.636 10.6026 21.0877 10.7971 20.5398 10.9925C20.3057 11.0759 20.0742 11.1665 19.8414 11.2537C19.6211 11.3361 19.4957 11.2509 19.4882 11.011C19.4859 10.9401 19.489 10.869 19.4943 10.7983C19.5383 10.21 19.3377 9.69342 19.0251 9.21182C18.7646 8.81037 18.516 8.39889 18.2263 8.01924C18.0043 7.72836 17.8493 7.41452 17.7165 7.079C17.5299 6.60742 17.573 6.1276 17.6127 5.6067ZM18.5089 5.75074C18.5958 6.18834 18.2392 6.32744 18.0048 6.52373C18.1248 7.01788 18.3533 7.42479 18.6173 7.81547C18.885 8.21173 19.1573 8.60533 19.4114 9.01008C19.6229 9.34699 19.8348 9.6886 19.904 10.0911C19.9687 10.4662 20.2498 10.6405 20.6064 10.5109C20.9333 10.3921 21.2594 10.2701 21.5807 10.137C21.6571 10.1054 21.7613 10.0288 21.7685 9.96351C21.805 9.63928 22.0106 9.45528 22.2972 9.29767C22.2028 9.03405 22.1513 8.75762 22.0144 8.5333C21.6934 8.00758 21.3271 7.50962 20.9874 6.99506C20.7057 6.56837 20.4694 6.11974 20.38 5.60695C20.3515 5.44312 20.0165 5.21082 19.8806 5.25875C19.4381 5.41484 18.9972 5.57512 18.5089 5.75074Z" fill="#CC0001"/>
<path fill-rule="evenodd" clip-rule="evenodd" d="M16.4391 31.7195C16.3986 31.982 16.3578 32.2713 16.3086 32.5592C16.2374 32.9756 16.1618 33.3914 16.0844 33.8067C16.055 33.965 16.013 34.121 15.9812 34.2789C15.9368 34.499 15.7786 34.5751 15.5905 34.4459C15.3471 34.2788 15.0941 34.1423 14.7993 34.0946C14.6508 34.0707 14.5019 34.016 14.3551 34.0215C13.9115 34.038 13.4689 34.078 13.0257 34.1072C12.44 34.146 11.8466 34.1941 11.2842 33.9962C11.0001 33.8963 10.7467 33.7027 10.4899 33.5351C10.3958 33.4737 10.3774 33.3611 10.4032 33.2371C10.5439 32.5578 10.7238 31.8862 10.8004 31.194C10.8212 31.0046 10.8661 30.8169 10.9119 30.6313C10.9567 30.4498 11.0873 30.4065 11.2569 30.4967C11.5199 30.6367 11.7826 30.7781 12.052 30.905C12.1397 30.9465 12.2476 30.9597 12.3465 30.9605C12.9423 30.9649 13.5357 30.9944 14.1284 30.8514C14.4776 30.7672 14.8447 30.788 15.2066 30.9057C15.5004 31.001 15.8115 31.043 16.0809 31.2094C16.1575 31.2568 16.2406 31.2971 16.3076 31.3558C16.4068 31.4428 16.4981 31.5419 16.4391 31.7195ZM15.9214 32.2379C15.7419 32.0683 15.5538 31.866 15.5765 31.5468C15.5855 31.4211 15.4727 31.3539 15.3518 31.3445C15.0396 31.3205 14.7262 31.2833 14.4142 31.2893C13.898 31.2993 13.3824 31.3553 12.8663 31.3613C12.4855 31.3656 12.0984 31.3868 11.7295 31.2317C11.6501 31.1983 11.5321 31.2344 11.4393 31.2623C11.3466 31.29 11.2629 31.3478 11.1974 31.3812C11.1461 31.62 11.0923 31.8349 11.0549 32.0525C11.0188 32.2613 10.9957 32.4728 10.9754 32.684C10.971 32.7295 10.9878 32.7973 11.0203 32.8231C11.2491 33.0048 11.2846 33.2621 11.2957 33.5308C11.782 33.713 12.2701 33.7281 12.7682 33.6876C13.2817 33.6459 13.7967 33.6165 14.3116 33.5961C14.5423 33.5869 14.7757 33.5883 14.9958 33.6951C15.0741 33.733 15.1739 33.7354 15.2643 33.7378C15.5325 33.7449 15.6782 33.5999 15.719 33.3353C15.7741 32.9789 15.849 32.6256 15.9214 32.2379Z" fill="#CC0001"/>
<path fill-rule="evenodd" clip-rule="evenodd" d="M11.8264 27.1979C11.793 27.3337 11.7753 27.4446 11.7389 27.5488C11.4952 28.2468 11.2545 28.946 10.9989 29.6395C10.8547 30.0306 10.7232 30.1094 10.3817 29.7943C10.0886 29.524 9.73706 29.3797 9.36033 29.2657C9.04281 29.1696 8.7215 29.1771 8.39967 29.1518C7.98617 29.1192 7.56975 29.0945 7.16258 29.0224C6.62545 28.9273 6.13459 28.7185 5.74544 28.31C5.61014 28.1678 5.53444 28.0578 5.6322 27.842C5.7637 27.5523 5.79692 27.2168 5.93602 26.932C6.12217 26.5507 6.22703 26.1455 6.37083 25.7521C6.40506 25.6584 6.43068 25.5618 6.46339 25.4676C6.54911 25.2217 6.74768 25.1545 6.92064 25.3422C7.20354 25.6493 7.54781 25.833 7.94141 25.9423C7.98972 25.9558 8.03701 25.978 8.08634 25.9834C8.47841 26.0273 8.87049 26.0969 9.26307 26.1021C9.68203 26.1076 10.0998 26.147 10.4918 26.2621C10.9385 26.3934 11.376 26.5914 11.6996 26.9557C11.7636 27.0275 11.7922 27.1305 11.8264 27.1979ZM10.9963 26.8999C10.7495 26.8154 10.5202 26.7119 10.2799 26.6595C9.78512 26.5517 9.27981 26.5287 8.77336 26.5132C8.4826 26.5044 8.19362 26.4363 7.90425 26.3918C7.86583 26.3859 7.8302 26.3617 7.79317 26.3459C7.5823 26.2562 7.37447 26.1581 7.15954 26.079C6.96097 26.0057 6.66146 26.1319 6.60059 26.3063C6.47531 26.6648 6.3532 27.0247 6.23819 27.3867C6.22323 27.4337 6.24174 27.508 6.27205 27.5497C6.40823 27.7366 6.47189 27.9366 6.45858 28.1711C6.45439 28.2439 6.51221 28.3658 6.57156 28.389C6.84089 28.4944 7.11541 28.6078 7.39844 28.6524C7.84706 28.7229 8.30317 28.7546 8.75725 28.777C9.25584 28.8016 9.72945 28.8967 10.1771 29.1262C10.4253 29.2534 10.7048 29.1423 10.8103 28.881C10.9262 28.5934 11.0336 28.3011 11.1224 28.0043C11.155 27.8956 11.1692 27.7362 11.1127 27.6548C10.9599 27.4344 10.9503 27.2066 10.9963 26.8999Z" fill="#CC0001"/>
<path fill-rule="evenodd" clip-rule="evenodd" d="M46.5087 25.1468C46.4106 25.1959 46.3296 25.2595 46.2397 25.2764C46.0123 25.3193 45.7714 25.3109 45.5536 25.3792C45.3116 25.4552 45.0698 25.5656 44.8624 25.7103C44.478 25.9783 44.1187 26.2821 43.749 26.5711C43.3642 26.872 42.9908 27.1982 42.5112 27.3378C42.2425 27.4162 41.9599 27.4532 41.6811 27.4891C41.4936 27.5132 41.3511 27.4198 41.2717 27.2443C41.0336 26.7178 40.7978 26.1902 40.5582 25.6643C40.4555 25.4388 40.3441 25.2173 40.239 24.993C40.2138 24.9389 40.1884 24.8821 40.1789 24.8239C40.15 24.6458 40.2085 24.552 40.3853 24.521C40.5243 24.4967 40.6677 24.4928 40.8094 24.4909C41.2539 24.4849 41.6152 24.2707 41.9514 24.0168C42.3721 23.6987 42.7715 23.3528 43.1867 23.0273C43.5913 22.7102 44.0423 22.4762 44.5466 22.3669C44.7216 22.329 44.9092 22.3461 45.091 22.3431C45.2193 22.3409 45.2983 22.4313 45.3431 22.5295C45.6163 23.1282 45.8811 23.7311 46.1485 24.3326C46.2613 24.586 46.3731 24.84 46.5087 25.1468ZM42.2365 26.9974C42.4597 26.8918 42.6873 26.8219 42.87 26.6901C43.3639 26.3345 43.8499 25.9658 44.317 25.5762C44.6474 25.3005 45.0071 25.1055 45.419 24.9925C45.4893 24.9734 45.556 24.9154 45.6076 24.8599C45.7901 24.664 45.8674 24.4594 45.6284 24.2449C45.6096 24.2279 45.6151 24.1862 45.6028 24.1588C45.4838 23.8944 45.3688 23.628 45.2397 23.3687C45.2087 23.3064 45.1287 23.2266 45.0713 23.2266C44.8208 23.2268 44.6693 23.079 44.5147 22.916C44.4763 22.8755 44.3806 22.8426 44.3364 22.8622C44.1095 22.9624 43.8714 23.0539 43.6736 23.1985C43.2574 23.5028 42.8571 23.83 42.4633 24.1633C42.0917 24.4777 41.6645 24.6932 41.2216 24.8709C41.0735 24.9302 40.9939 25.0067 40.9232 25.1303C40.8221 25.3077 40.912 25.4655 40.9769 25.616C41.0828 25.8617 41.2356 26.089 41.3255 26.3395C41.3901 26.5197 41.492 26.6104 41.6656 26.6324C41.836 26.654 41.9659 26.7338 42.0747 26.8626C42.1166 26.9119 42.1752 26.9472 42.2365 26.9974Z" fill="#CC0001"/>
<path fill-rule="evenodd" clip-rule="evenodd" d="M17.3929 38.6939C16.9644 38.6655 16.579 38.8045 16.2247 39.0257C15.9217 39.2149 15.6424 39.442 15.3396 39.631C14.9025 39.9039 14.5076 40.2426 13.9921 40.3922C13.5995 40.5061 13.2148 40.4938 12.8236 40.4584C12.7645 40.4531 12.6874 40.3703 12.6628 40.3064C12.5308 39.9608 12.4167 39.6086 12.2886 39.2614C12.2199 39.0751 12.1275 38.8975 12.0607 38.7107C11.9498 38.4007 11.8297 38.0914 11.7536 37.7722C11.6951 37.5267 11.8055 37.4291 12.0584 37.4607C12.582 37.5261 13.0626 37.3918 13.4954 37.1177C13.9472 36.8317 14.3683 36.4981 14.8122 36.1992C15.4129 35.7946 16.0669 35.57 16.8048 35.6574C16.9785 35.6779 17.0419 35.8087 17.0895 35.9374C17.38 36.7234 17.6627 37.5123 17.9456 38.3011C18.0353 38.5508 17.9327 38.6914 17.6663 38.6939C17.5751 38.6947 17.4839 38.6939 17.3929 38.6939ZM16.1544 36.0977C16.0109 36.1214 15.8543 36.11 15.738 36.1732C15.3717 36.3724 15.0022 36.5747 14.6677 36.8215C14.0645 37.2665 13.4529 37.68 12.7196 37.8879C12.4316 37.9695 12.3365 38.2421 12.4491 38.5465C12.5705 38.8743 12.6946 39.2013 12.825 39.5486C13.1398 39.6209 13.4188 39.7806 13.5772 40.1083C13.7873 40.0187 13.9678 39.9384 14.1511 39.8641C14.5831 39.6887 14.9386 39.3921 15.3157 39.1303C15.8399 38.7662 16.3527 38.3896 17.0044 38.2656C17.1153 38.2444 17.2177 38.0937 17.2884 37.9804C17.3235 37.9244 17.2907 37.8139 17.2665 37.7347C17.173 37.4283 17.0797 37.1213 16.967 36.822C16.9273 36.717 16.8379 36.5594 16.7605 36.5528C16.4589 36.5271 16.2987 36.3411 16.1544 36.0977Z" fill="#CC0001"/>
<path fill-rule="evenodd" clip-rule="evenodd" d="M13.451 22.6914C13.5293 22.7997 13.6527 22.8987 13.6787 23.0188C13.7848 23.5089 14.0879 23.8579 14.457 24.1567C14.6735 24.332 14.9266 24.4612 15.1522 24.6263C15.6974 25.0251 16.2846 25.377 16.7026 25.9254C16.9003 26.1844 16.9992 26.4983 17.0607 26.8102C17.0803 26.9103 16.9553 27.0645 16.8604 27.1564C16.6583 27.352 16.4288 27.5189 16.2173 27.7053C15.8229 28.0528 15.4375 28.4101 15.0407 28.7547C14.7669 28.9925 14.6626 28.9367 14.5515 28.5958C14.3896 28.0988 14.0847 27.6923 13.6526 27.3878C13.1067 27.0032 12.5542 26.6275 12.0186 26.2289C11.6056 25.9217 11.3518 25.4878 11.1694 25.0143C11.0765 24.7729 11.1378 24.6409 11.3367 24.4656C11.7938 24.0625 12.2404 23.6471 12.6971 23.2435C12.892 23.0712 13.1011 22.9145 13.3059 22.7534C13.3353 22.73 13.3769 22.7221 13.451 22.6914ZM11.7745 25.3138C11.853 25.4306 11.9107 25.5681 12.0115 25.6568C12.3005 25.9113 12.5923 26.1681 12.9103 26.3836C13.3964 26.7132 13.9151 26.9966 14.3172 27.437C14.437 27.5682 14.5666 27.6945 14.6645 27.8412C14.8198 28.0742 15.1137 28.1395 15.324 27.958C15.5877 27.7304 15.8498 27.5003 16.1023 27.2602C16.1591 27.2062 16.2073 27.1031 16.1998 27.0288C16.173 26.7644 16.2203 26.5296 16.4173 26.3204C16.3613 26.2333 16.3128 26.1479 16.2548 26.0694C15.9699 25.684 15.5794 25.4151 15.1847 25.166C14.5591 24.7706 13.9451 24.3736 13.5158 23.7479C13.3806 23.551 13.0982 23.5217 12.9055 23.6741C12.6162 23.9029 12.3351 24.1425 12.0589 24.3868C12.0143 24.4262 11.9855 24.5185 11.9958 24.5784C12.0435 24.8583 11.9427 25.0895 11.7745 25.3138Z" fill="#CC0001"/>
<path fill-rule="evenodd" clip-rule="evenodd" d="M38.1472 32.4876C37.8482 32.5629 37.5696 32.3478 37.2601 32.2753C37.0996 32.2377 37.0179 32.103 37.0065 31.909C36.9582 31.0812 36.8888 30.2547 36.8288 29.4276C36.8245 29.3679 36.8238 29.3042 36.8399 29.2477C36.8844 29.0893 36.9708 29.0514 37.1349 29.1093C37.49 29.2347 37.855 29.3315 38.2303 29.2588C38.5743 29.1924 38.9128 29.0912 39.2484 28.9885C39.5542 28.8949 39.8512 28.7724 40.1557 28.6748C40.393 28.5987 40.6348 28.5352 40.8773 28.4774C41.1661 28.4085 41.4574 28.3937 41.7452 28.4912C41.9131 28.5481 42.0972 28.5315 42.2534 28.6589C42.3647 28.7497 42.4363 28.8297 42.4452 28.9748C42.4868 29.6613 42.532 30.3477 42.5811 31.0338C42.5918 31.1846 42.6255 31.3336 42.6458 31.4837C42.6866 31.784 42.5351 31.8864 42.248 31.7974C41.9111 31.6928 41.5885 31.5951 41.2004 31.6743C40.6438 31.7879 40.1232 31.9866 39.5891 32.157C39.3313 32.2392 39.0513 32.2639 38.8071 32.3725C38.6019 32.4634 38.4035 32.4896 38.1472 32.4876ZM41.5228 28.8952C41.4007 28.8952 41.3001 28.9006 41.2004 28.8942C40.8598 28.8722 40.5419 28.9855 40.2211 29.0664C39.97 29.1296 39.7195 29.2156 39.487 29.3287C39.0188 29.5563 38.5323 29.7042 38.0124 29.6902C37.7128 29.6821 37.4571 29.7257 37.2696 30.0117C37.3113 30.4177 37.3518 30.8482 37.4044 31.277C37.4116 31.3355 37.4678 31.414 37.521 31.4363C37.7152 31.518 37.8207 31.6723 37.8762 31.8565C37.9238 32.0141 38.0201 32.0778 38.166 32.0581C38.4552 32.0193 38.7487 31.989 39.0283 31.9116C39.3241 31.8296 39.603 31.6893 39.8942 31.5882C40.4939 31.3799 41.0947 31.18 41.7473 31.2167C42.0315 31.2326 42.205 31.0313 42.1842 30.7366C42.1592 30.3834 42.1198 30.0312 42.0762 29.6797C42.0687 29.619 42.0222 29.5341 41.9713 29.5123C41.7138 29.4023 41.6093 29.1816 41.5228 28.8952Z" fill="#CC0001"/>
<path fill-rule="evenodd" clip-rule="evenodd" d="M10.7763 36.9417C10.7809 37.1686 10.6743 37.2813 10.4953 37.2415C9.71364 37.0671 9.06708 37.3688 8.43129 37.7737C8.04517 38.0195 7.61024 38.1878 7.21867 38.4263C6.74189 38.7168 6.22923 38.7313 5.70287 38.6987C5.44889 38.683 5.37407 38.6044 5.30852 38.3708C5.20568 38.0056 5.08293 37.6461 4.98111 37.2807C4.87612 36.9034 4.7871 36.5217 4.68934 36.1425C4.66677 36.0552 4.63621 35.97 4.61161 35.8833C4.55594 35.6869 4.70189 35.5042 4.8855 35.5776C5.27872 35.7349 5.64569 35.5984 6.01506 35.5172C6.17407 35.4822 6.31787 35.3719 6.46521 35.2897C6.88366 35.0564 7.30705 34.8307 7.71625 34.5822C8.30398 34.2253 8.93127 34.0658 9.61753 34.1286C9.94252 34.1583 10.0376 34.2327 10.1152 34.5506C10.246 35.0868 10.3749 35.6237 10.5166 36.1572C10.5726 36.3688 10.6619 36.5717 10.733 36.7795C10.7558 36.8456 10.7691 36.915 10.7763 36.9417ZM6.25725 38.3003C6.59087 38.2158 6.91929 38.1458 7.21893 37.9749C7.72081 37.6885 8.22194 37.4005 8.73016 37.1254C9.06568 36.944 9.41325 36.7885 9.80532 36.7663C9.96357 36.7573 10.1375 36.5657 10.1342 36.3994C10.1317 36.2698 10.1072 36.1385 10.0755 36.0123C10.0194 35.7888 9.92883 35.572 9.89307 35.346C9.8634 35.1581 9.77641 35.0601 9.6051 35.0084C9.44508 34.96 9.32525 34.8629 9.24701 34.7085C9.13961 34.497 9.06162 34.4683 8.83668 34.5493C8.65078 34.6162 8.46083 34.6785 8.28635 34.7691C7.88654 34.9764 7.47367 35.169 7.10569 35.4246C6.66835 35.7285 6.19132 35.9081 5.68208 36.0082C5.50684 36.0427 5.41655 36.1224 5.29888 36.2428C5.13213 36.4131 5.18057 36.5338 5.2824 36.6872C5.30344 36.719 5.30433 36.7642 5.31473 36.8032C5.40222 37.1312 5.48972 37.4592 5.57468 37.7775C5.90855 37.8306 6.10496 38.0198 6.25725 38.3003Z" fill="#CC0001"/>
<path fill-rule="evenodd" clip-rule="evenodd" d="M39.5352 20.2268C39.5984 20.0944 39.6893 20.0411 39.8192 20.0094C40.243 19.906 40.6049 19.7062 40.9154 19.3804C41.2062 19.0751 41.4302 18.723 41.7025 18.4081C41.9568 18.114 42.1832 17.7877 42.5291 17.5829C42.8145 17.4138 43.0986 17.2486 43.4479 17.25C43.5879 17.2505 43.6936 17.2763 43.7817 17.4014C44.1025 17.858 44.4323 18.3086 44.7623 18.7586C44.8803 18.9192 45.018 19.0657 45.1308 19.2294C45.2664 19.4257 45.2423 19.5027 45.0224 19.5902C44.8463 19.6601 44.658 19.6998 44.4833 19.7726C44.2031 19.8895 43.9693 20.0659 43.7847 20.3167C43.5547 20.6293 43.3041 20.9272 43.0555 21.2255C42.7751 21.5617 42.4914 21.8921 42.1027 22.1176C41.8622 22.2569 41.6098 22.3366 41.3389 22.3657C41.2044 22.3802 41.0887 22.3458 41.0037 22.2173C40.8722 22.0186 40.7234 21.8313 40.5815 21.6395C40.2326 21.1678 39.8831 20.6965 39.5352 20.2268ZM41.7884 21.8455C41.8459 21.8266 41.9019 21.8225 41.9379 21.7935C42.0693 21.6876 42.2075 21.5854 42.3186 21.4601C42.5895 21.1546 42.8541 20.843 43.1071 20.5227C43.3661 20.1946 43.6353 19.879 43.9736 19.6297C44.085 19.5478 44.2121 19.4855 44.3157 19.3955C44.5119 19.2251 44.5283 19.0538 44.3775 18.8505C44.2115 18.6266 44.0256 18.4162 43.8742 18.1832C43.7886 18.0515 43.6942 18.0066 43.55 18.0189C43.4143 18.0305 43.3039 17.9891 43.1924 17.8966C42.9782 17.7185 42.9583 17.734 42.7343 17.9008C42.3196 18.2089 42.0206 18.6221 41.7118 19.0241C41.3743 19.4635 41.0177 19.8758 40.527 20.1539C40.3485 20.2551 40.2379 20.545 40.3258 20.6686C40.5165 20.9365 40.7129 21.2011 40.921 21.4555C40.9777 21.5248 41.0802 21.5815 41.1689 21.5948C41.3605 21.6233 41.5513 21.6316 41.6899 21.7949C41.7129 21.8215 41.7572 21.8301 41.7884 21.8455Z" fill="#CC0001"/>
<path fill-rule="evenodd" clip-rule="evenodd" d="M38.5228 9.30421C38.399 9.4229 38.3059 9.54146 38.1868 9.62122C37.8129 9.87115 37.6434 10.2493 37.5138 10.6528C37.3429 11.1852 37.1778 11.7194 37.0176 12.255C36.8685 12.7536 36.5467 13.1233 36.1504 13.4368C36.0095 13.5483 35.8661 13.5877 35.6848 13.4683C35.2947 13.2111 34.8873 12.9806 34.4875 12.7384C34.2501 12.5946 34.0114 12.4525 33.777 12.3036C33.5465 12.1573 33.535 12.047 33.7471 11.8674C33.9923 11.6597 34.2632 11.4738 34.3837 11.1611C34.5058 10.8439 34.6152 10.5208 34.7121 10.1947C34.8859 9.60905 35.0402 9.01536 35.3753 8.49509C35.5256 8.2619 35.7127 8.05863 35.9611 7.91395C36.1006 7.83267 36.2224 7.82328 36.3546 7.90165C36.9973 8.2832 37.641 8.66335 38.2794 9.052C38.3675 9.10564 38.4282 9.20404 38.5228 9.30421ZM35.7761 8.56483C35.7153 8.65904 35.6603 8.74159 35.6078 8.82566C35.3534 9.23308 35.2505 9.69756 35.1402 10.153C35.0021 10.7239 34.7953 11.2572 34.4572 11.7379C34.2976 11.9648 34.328 12.1645 34.5617 12.3183C34.7773 12.4602 35.0122 12.575 35.2161 12.7312C35.3737 12.852 35.527 12.8719 35.6971 12.8089C35.8357 12.7576 35.9618 12.7355 36.1075 12.7948C36.1641 12.8178 36.2833 12.7895 36.3187 12.7427C36.4385 12.5841 36.5667 12.4185 36.6317 12.2344C36.7752 11.8281 36.8913 11.4113 37.001 10.9944C37.1008 10.615 37.2089 10.2422 37.43 9.91185C37.5071 9.79646 37.5897 9.68234 37.649 9.55769C37.748 9.34936 37.6913 9.15256 37.5048 9.03463C37.2527 8.87524 36.9987 8.71775 36.7378 8.57345C36.6666 8.53401 36.5427 8.50472 36.4859 8.53997C36.2616 8.67908 36.0402 8.6333 35.7761 8.56483Z" fill="#CC0001"/>
<path fill-rule="evenodd" clip-rule="evenodd" d="M37.276 19.9437C37.1791 19.8958 37.0973 19.8613 37.0214 19.8168C36.686 19.6203 36.3527 19.4209 36.0184 19.2229C35.7861 19.0855 35.5521 18.9511 35.3217 18.8107C35.2374 18.7594 35.1555 18.7009 35.0824 18.6346C34.9637 18.5269 34.9514 18.3836 35.079 18.307C35.4026 18.113 35.6019 17.8201 35.7752 17.5027C35.8514 17.3634 35.9295 17.2202 35.9731 17.0692C36.1122 16.5872 36.1966 16.0858 36.3749 15.6198C36.5782 15.0888 36.8498 14.5831 37.3947 14.2977C37.5103 14.2371 37.5906 14.2395 37.6993 14.3045C38.2559 14.6371 38.8168 14.9624 39.377 15.2886C39.4806 15.3491 39.5889 15.4017 39.6941 15.4594C39.8913 15.5676 39.9078 15.7399 39.7309 15.8875C39.6243 15.9765 39.5026 16.0486 39.402 16.1433C39.1624 16.3689 39.0265 16.6647 38.9224 16.9656C38.7723 17.3989 38.6555 17.8441 38.5296 18.2856C38.3555 18.8958 38.0784 19.4381 37.5383 19.8081C37.4597 19.8622 37.3679 19.8969 37.276 19.9437ZM39.0205 15.5084C38.7466 15.3515 38.4728 15.2044 38.2096 15.0397C38.0703 14.9525 37.9412 14.9385 37.7846 14.9785C37.6622 15.0097 37.5271 15.019 37.4017 15.0035C37.1569 14.973 37.1513 14.9645 37.0145 15.1848C36.967 15.2612 36.9163 15.3392 36.8881 15.4237C36.708 15.9641 36.5249 16.5038 36.3611 17.0492C36.2564 17.3975 36.1313 17.7396 35.9137 18.0255C35.7734 18.2099 35.6953 18.3748 35.7726 18.6393C36.0901 18.8245 36.4336 19.0279 36.7808 19.2245C36.827 19.2507 36.9136 19.2704 36.9458 19.246C37.1196 19.1143 37.3126 19.1488 37.5008 19.1683C37.6413 19.1827 37.7235 19.1346 37.7928 19.0136C38.0083 18.6375 38.1639 18.2384 38.2779 17.8222C38.3681 17.493 38.4403 17.158 38.5482 16.8347C38.6169 16.6288 38.6981 16.404 38.8415 16.2514C39.0582 16.0214 39.0937 15.7875 39.0205 15.5084Z" fill="#CC0001"/>
<path fill-rule="evenodd" clip-rule="evenodd" d="M11.2302 11.9062C11.3001 11.9963 11.3793 12.0612 11.4096 12.1441C11.5858 12.6236 11.9007 12.9743 12.3367 13.2367C12.7455 13.4827 13.1475 13.7425 13.5352 14.0199C13.9221 14.2964 14.2358 14.6386 14.3345 15.1301C14.3439 15.177 14.3769 15.2191 14.413 15.2916C14.2212 15.4926 14.0279 15.7022 13.8268 15.9041C13.5608 16.1706 13.2905 16.4326 13.0186 16.6928C12.932 16.7756 12.8411 16.858 12.739 16.9188C12.6593 16.9663 12.5595 16.9801 12.4684 17.009C12.4161 16.9224 12.3642 16.8674 12.3467 16.803C12.2159 16.3232 11.8556 16.0318 11.478 15.766C11.1848 15.5597 10.8602 15.3989 10.5592 15.203C10.1737 14.9519 9.81624 14.6652 9.58596 14.2548C9.50861 14.1167 9.45028 13.9663 9.39728 13.8164C9.36228 13.7174 9.38143 13.6259 9.47209 13.5453C9.64188 13.3944 9.79722 13.2273 9.96219 13.0708C10.2977 12.7525 10.6351 12.4362 10.9734 12.1207C11.0455 12.0535 11.1247 11.994 11.2302 11.9062ZM11.0621 12.6572C10.9566 12.7012 10.8643 12.7184 10.8004 12.7705C10.6159 12.9204 10.4433 13.0849 10.2649 13.2424C10.1529 13.341 10.0952 13.455 10.1109 13.6117C10.1207 13.7094 10.1152 13.8184 10.0809 13.9088C9.95952 14.228 9.95293 14.2369 10.1755 14.4546C10.2679 14.5449 10.3644 14.6345 10.4719 14.7049C10.779 14.906 11.0877 15.1057 11.4051 15.2899C11.7916 15.5139 12.1157 15.8072 12.4086 16.1388C12.6245 16.3833 12.8016 16.3956 13.0309 16.1721C13.2017 16.0058 13.3566 15.8206 13.5413 15.672C13.68 15.5604 13.6892 15.4358 13.6894 15.2815C13.6896 15.1765 13.7181 15.0627 13.7658 14.969C13.8247 14.8529 13.8345 14.7634 13.7278 14.6774C13.4262 14.4344 13.1461 14.1565 12.8187 13.9559C12.2995 13.638 11.7672 13.3509 11.3843 12.855C11.3139 12.7633 11.1756 12.7241 11.0621 12.6572Z" fill="#CC0001"/>
<path fill-rule="evenodd" clip-rule="evenodd" d="M11.0951 21.7052C11.0141 21.5983 10.9351 21.5368 10.9143 21.4594C10.7888 20.9951 10.476 20.6848 10.0903 20.4354C9.73898 20.2082 9.37239 20.0041 9.02635 19.7694C8.59167 19.4743 8.20936 19.1243 8.01421 18.616C7.93267 18.4038 7.9399 18.2171 8.12947 18.0454C8.61234 17.6079 9.08011 17.1542 9.55879 16.7122C9.76561 16.5212 9.91321 16.5639 10.0018 16.8206C10.1217 17.1675 10.3068 17.4601 10.6308 17.6634C11.102 17.9593 11.5595 18.2764 12.0223 18.5854C12.4217 18.8522 12.6991 19.2215 12.9016 19.6502C12.9776 19.8112 12.9366 19.968 12.7973 20.1045C12.3732 20.5204 11.9508 20.9383 11.5227 21.3502C11.4017 21.467 11.264 21.5661 11.0951 21.7052ZM11.0595 20.8955C11.3173 20.9798 11.5074 20.9159 11.6756 20.7058C11.7975 20.5535 11.9796 20.4509 12.113 20.306C12.178 20.2354 12.239 20.1086 12.2205 20.0254C12.1878 19.8783 12.2255 19.7537 12.2961 19.6525C12.4236 19.4692 12.3611 19.3298 12.2213 19.2184C11.9173 18.9762 11.6143 18.7283 11.2858 18.5227C10.8554 18.2532 10.3985 18.0253 10.063 17.6279C10.0048 17.559 9.95289 17.4839 9.88924 17.4204C9.71425 17.2458 9.52101 17.244 9.33575 17.4095C9.17306 17.5548 9.00961 17.6995 8.84882 17.8468C8.71391 17.9706 8.59497 18.0931 8.65367 18.3113C8.67701 18.3978 8.63935 18.5171 8.5937 18.6023C8.49783 18.7815 8.55198 18.9188 8.69007 19.0283C8.96231 19.2448 9.22695 19.4781 9.52468 19.6537C10.1037 19.995 10.6821 20.3276 11.0595 20.8955Z" fill="#CC0001"/>
<path fill-rule="evenodd" clip-rule="evenodd" d="M10.1482 22.7924C10.1205 22.8586 10.1025 22.9273 10.0661 22.9843C9.68694 23.5785 9.30729 24.1724 8.92206 24.7626C8.7964 24.9553 8.70054 24.949 8.56473 24.7586C8.22503 24.2826 7.74952 24.0148 7.20122 23.8441C6.73434 23.6988 6.2573 23.5659 5.81882 23.3563C5.49459 23.2014 5.19597 22.9665 5.00044 22.6365C4.90267 22.4715 4.89735 22.3288 5.00576 22.1611C5.3196 21.6755 5.61797 21.1801 5.92686 20.6913C5.99026 20.591 6.06773 20.4986 6.14648 20.4094C6.27442 20.2647 6.36788 20.2645 6.48136 20.4254C6.81346 20.8968 7.26336 21.1782 7.81901 21.322C8.1771 21.4147 8.53291 21.53 8.87375 21.673C9.34799 21.8717 9.79459 22.1228 10.0653 22.5917C10.0996 22.6509 10.1184 22.719 10.1482 22.7924ZM5.5609 22.7413C5.59514 22.7795 5.60617 22.7969 5.62177 22.8085C6.06926 23.1454 6.59954 23.3023 7.12058 23.4654C7.61004 23.6185 8.08897 23.7725 8.48244 24.1213C8.636 24.2575 8.84319 24.2309 8.95529 24.0684C9.11328 23.8391 9.24871 23.5936 9.41279 23.3689C9.51094 23.2345 9.50599 23.1172 9.45349 22.973C9.42103 22.8837 9.40024 22.7751 9.41951 22.6848C9.47543 22.422 9.48824 22.4182 9.27572 22.2762C9.1602 22.1991 9.03428 22.131 8.90406 22.0836C8.49144 21.9331 8.07413 21.7961 7.66 21.6499C7.50872 21.5965 7.3563 21.5421 7.21365 21.4697C7.00874 21.3656 6.8094 21.2494 6.61311 21.1295C6.39222 20.9947 6.19897 21.0107 6.04821 21.2154C5.88298 21.4393 5.73374 21.6755 5.58588 21.9117C5.55685 21.9579 5.54404 22.0358 5.56166 22.086C5.64092 22.3121 5.64117 22.5367 5.5609 22.7413Z" fill="#CC0001"/>
<path fill-rule="evenodd" clip-rule="evenodd" d="M4.34513 26.8495C4.25624 26.8069 4.18016 26.7781 4.11181 26.7366C3.63351 26.447 3.12541 26.4006 2.57344 26.4639C2.03364 26.5258 1.48243 26.527 0.938574 26.5012C0.630316 26.4865 0.358958 26.3031 0.108523 26.1107C-0.000654261 26.0268 -0.00965702 25.9262 0.00593972 25.8163C0.0512083 25.497 0.100408 25.1781 0.156708 24.8605C0.228859 24.4538 0.309632 24.0488 0.388757 23.6321C0.504908 23.5486 0.635642 23.56 0.747229 23.6373C1.28538 24.0101 1.88287 23.9818 2.49241 23.9248C2.91416 23.8853 3.3392 23.8512 3.76171 23.861C4.13869 23.8696 4.47028 24.0568 4.77765 24.2649C4.88265 24.336 4.94478 24.4472 4.9056 24.6056C4.82596 24.927 4.76751 25.2541 4.70969 25.5804C4.65706 25.8777 4.61141 26.1764 4.57261 26.4757C4.54472 26.6928 4.55207 26.6938 4.34513 26.8495ZM0.825085 26.0932C1.17861 26.1707 1.55103 26.1876 1.94184 26.1446C2.45247 26.0885 2.97236 26.1169 3.48845 26.1126C3.55806 26.1121 3.63922 26.1135 3.69552 26.147C3.91514 26.2779 4.09533 26.2128 4.24952 26.074C4.28895 25.9079 4.3308 25.7625 4.35705 25.6144C4.41132 25.3104 4.48157 25.004 4.26233 24.7252C4.2149 24.6648 4.18815 24.5833 4.16811 24.5072C4.11638 24.3112 4.06718 24.2377 3.87177 24.238C3.37699 24.2387 2.88081 24.2441 2.38793 24.2835C2.05355 24.3103 1.72741 24.3425 1.3943 24.2665C1.14463 24.2096 0.884429 24.1335 0.606984 24.3043C0.546119 24.6544 0.482211 25.0202 0.420711 25.3727C0.551699 25.6062 0.677487 25.8304 0.825085 26.0932Z" fill="#CC0001"/>
<path fill-rule="evenodd" clip-rule="evenodd" d="M44.0119 31.3361C44.1042 31.3684 44.1888 31.3882 44.2639 31.4262C44.5319 31.5618 44.8165 31.6141 45.1129 31.5975C45.4141 31.5807 45.7107 31.5662 46.011 31.4886C46.5779 31.3419 47.1593 31.2629 47.7518 31.323C47.9693 31.3451 48.1565 31.4301 48.3458 31.5236C48.4793 31.5895 48.535 31.6919 48.5267 31.8395C48.5165 32.0214 48.5204 32.2042 48.5082 32.386C48.4703 32.9508 48.4277 33.5152 48.3839 34.1214C48.298 34.1238 48.1992 34.1469 48.1121 34.1245C47.9483 34.0825 47.7845 34.0276 47.6325 33.954C47.3571 33.821 47.0911 33.8436 46.8096 33.9355C46.5721 34.013 46.3257 34.0768 46.0784 34.1072C45.669 34.1574 45.2713 34.2895 44.8488 34.257C44.5513 34.234 44.2834 34.1417 44.0145 34.0267C43.8921 33.9743 43.8279 33.8914 43.8322 33.7759C43.8594 33.0381 43.8937 32.3007 43.9311 31.5634C43.9347 31.4972 43.9763 31.4331 44.0119 31.3361ZM48.1372 32.2362C47.9556 32.1451 47.8373 32.0199 47.7842 31.8298C47.7682 31.7725 47.7108 31.7006 47.6577 31.6849C47.5166 31.6428 47.3641 31.5944 47.2223 31.6089C46.964 31.6357 46.7079 31.6969 46.4549 31.7603C45.9638 31.8835 45.4732 31.9999 44.9609 31.965C44.8396 31.9568 44.7177 31.9459 44.5963 31.948C44.3771 31.9517 44.2616 32.0633 44.2513 32.2778C44.2388 32.5411 44.2235 32.8047 44.226 33.0681C44.2267 33.1618 44.2456 33.293 44.3076 33.3412C44.4651 33.4636 44.5092 33.6316 44.5539 33.8216C44.9759 33.8833 45.3846 33.8743 45.7937 33.785C46.1081 33.7164 46.4223 33.6346 46.741 33.6025C47.0515 33.5712 47.3676 33.5932 47.6813 33.5961C47.9311 33.5985 48.1253 33.4694 48.1336 33.2579C48.147 32.9248 48.1372 32.5909 48.1372 32.2362Z" fill="#CC0001"/>
<path fill-rule="evenodd" clip-rule="evenodd" d="M3.30896 30.9796C3.41446 30.985 3.48877 30.973 3.55204 30.9943C4.08854 31.1747 4.58561 31.0966 5.09016 30.8443C5.45446 30.6623 5.86315 30.5712 6.24546 30.4226C6.5475 30.3052 6.85703 30.3061 7.17048 30.3132C7.21081 30.3141 7.25176 30.3147 7.29183 30.3193C7.7463 30.371 7.82086 30.4662 7.86714 30.9223C7.91684 31.4137 7.99939 31.9015 8.06089 32.3917C8.08334 32.5697 8.08638 32.7502 8.09792 32.9216C7.92623 33.033 7.77051 32.991 7.63306 32.9457C7.37185 32.8597 7.12724 32.8879 6.86032 32.9353C6.39788 33.0175 5.99819 33.2497 5.56973 33.4089C5.20745 33.5435 4.83884 33.6466 4.46147 33.6776C4.2175 33.6978 3.96199 33.622 3.71739 33.5643C3.61722 33.5407 3.53695 33.4638 3.52123 33.3268C3.45909 32.7856 3.37224 32.247 3.31289 31.7055C3.28817 31.4782 3.30896 31.2459 3.30896 30.9796ZM7.56484 31.223C7.3792 31.1261 7.20117 30.9734 7.09288 30.7472C7.07259 30.7049 6.99829 30.6621 6.95048 30.6639C6.75901 30.671 6.55663 30.6609 6.37987 30.7208C6.02216 30.8422 5.67979 31.008 5.3288 31.1499C4.97388 31.2933 4.60704 31.4077 4.22574 31.436C4.01703 31.4516 3.82847 31.4687 3.65285 31.6726C3.70737 32.0225 3.76697 32.4063 3.83037 32.8131C4.08968 32.876 4.18301 33.1197 4.31463 33.3554C4.46489 33.343 4.62365 33.3585 4.76199 33.3128C5.12084 33.1942 5.46866 33.0423 5.82523 32.9155C6.23037 32.7714 6.6227 32.5751 7.07006 32.5857C7.16072 32.5879 7.25367 32.5819 7.34217 32.5634C7.56902 32.5159 7.72778 32.3114 7.69862 32.1237C7.65512 31.8444 7.61543 31.565 7.56484 31.223Z" fill="#CC0001"/>
<path fill-rule="evenodd" clip-rule="evenodd" d="M45.1241 27.1211C45.2473 27.1373 45.361 27.1205 45.433 27.1675C45.7626 27.3832 46.1269 27.429 46.5026 27.4041C46.8648 27.3803 47.2244 27.3162 47.5868 27.2951C48.0988 27.2651 48.6169 27.1811 49.1164 27.3857C49.1536 27.4009 49.1963 27.4032 49.2326 27.4198C49.7022 27.6341 49.7277 27.689 49.6066 28.2134C49.6019 28.2332 49.596 28.2528 49.5936 28.2728C49.5364 28.7425 49.4832 29.2126 49.4209 29.6815C49.3985 29.8481 49.354 30.0117 49.3128 30.2092C49.2057 30.183 49.1211 30.1838 49.0634 30.1448C48.5725 29.8127 48.0398 29.7599 47.4757 29.8869C47.3873 29.9068 47.2961 29.9149 47.206 29.9266C46.9653 29.9578 46.7245 29.9882 46.4838 30.0184C45.9221 30.0885 45.4013 29.9617 44.9192 29.6762C44.8111 29.6121 44.7742 29.4964 44.7943 29.3612C44.827 29.1413 44.8374 28.918 44.8709 28.6984C44.949 28.1832 45.0354 27.6694 45.1241 27.1211ZM45.3534 27.8366C45.3178 28.1251 45.282 28.4259 45.2426 28.7262C45.2219 28.8837 45.2457 29.015 45.3715 29.1341C45.437 29.196 45.4789 29.3059 45.4882 29.3986C45.5061 29.5766 45.6125 29.6616 45.7631 29.6669C46.0866 29.6783 46.418 29.706 46.7331 29.6516C47.3157 29.5509 47.8939 29.4866 48.4829 29.5582C48.5633 29.568 48.6439 29.5802 48.7247 29.5828C48.9668 29.5911 49.072 29.5352 49.1149 29.2968C49.1703 28.9893 49.1841 28.6742 49.2105 28.3619C49.2135 28.3262 49.1926 28.2768 49.1657 28.2523C48.9939 28.0954 48.9204 27.8952 48.9144 27.6598C48.3307 27.5569 47.7717 27.6265 47.2081 27.6903C46.7983 27.7367 46.3767 27.7661 45.97 27.7195C45.7498 27.6942 45.5668 27.6477 45.3534 27.8366Z" fill="#CC0001"/>
<path fill-rule="evenodd" clip-rule="evenodd" d="M50.8459 21.2812C50.9532 21.3605 51.0594 21.4073 51.1178 21.4886C51.2574 21.6825 51.3726 21.8935 51.5006 22.0958C51.714 22.4333 51.9335 22.7669 52.1426 23.107C52.2789 23.3287 52.223 23.4574 51.9753 23.4763C51.5238 23.5106 51.1928 23.7566 50.8934 24.0622C50.5664 24.3959 50.2526 24.7428 49.9181 25.0685C49.6939 25.2864 49.4244 25.441 49.11 25.5004C49.0803 25.5059 49.0476 25.5086 49.0221 25.5228C48.6923 25.7049 48.635 25.6268 48.4407 25.3355C48.1149 24.8471 47.8187 24.3386 47.5155 23.8353C47.364 23.5839 47.4054 23.5193 47.7013 23.4713C47.9288 23.4342 48.1333 23.3542 48.3267 23.2075C48.6328 22.9751 48.908 22.7206 49.1595 22.4298C49.3865 22.1675 49.6266 21.9006 49.9097 21.7073C50.1835 21.52 50.52 21.4244 50.8459 21.2812ZM48.0144 23.9882C48.0488 24.058 48.0793 24.1303 48.1189 24.197C48.2158 24.3604 48.318 24.5206 48.4158 24.6834C48.4957 24.8164 48.5794 24.9247 48.7637 24.9251C48.8564 24.9252 48.9681 24.9768 49.0377 25.0412C49.1622 25.1565 49.2601 25.1201 49.3901 25.0558C49.6512 24.9266 49.8225 24.7019 50.0204 24.5052C50.4493 24.0789 50.7953 23.5655 51.3823 23.3101C51.6049 23.2132 51.6461 22.9422 51.5237 22.7349C51.4218 22.563 51.3142 22.3943 51.2061 22.2262C51.1747 22.177 51.1421 22.1143 51.0942 22.0922C50.8962 22.0005 50.6961 21.9099 50.4888 21.8453C50.4134 21.8217 50.3086 21.8567 50.2291 21.8919C50.1491 21.9273 50.0771 21.9892 50.0132 22.0515C49.7421 22.3158 49.4675 22.5774 49.209 22.8539C48.9229 23.1597 48.6445 23.4662 48.2462 23.6367C48.1151 23.693 48.0198 23.8101 48.0144 23.9882Z" fill="#CC0001"/>
<path fill-rule="evenodd" clip-rule="evenodd" d="M40.4219 13.9814C40.7119 13.8914 40.9581 13.834 41.189 13.739C41.5601 13.5863 41.7939 13.2604 42.0689 12.989C42.3322 12.7293 42.5399 12.4143 42.8518 12.2029C43.1503 12.0007 43.4479 11.7989 43.8272 11.7841C43.9528 11.7791 44.0529 11.7914 44.1259 11.9239C44.2167 12.0888 44.3462 12.2318 44.4471 12.3917C44.6912 12.7787 44.9298 13.1693 45.1668 13.5607C45.2055 13.6245 45.2241 13.7003 45.2591 13.7883C45.1396 13.8378 45.05 13.9023 44.9566 13.9084C44.5233 13.9367 44.2153 14.1883 43.9289 14.4717C43.6794 14.7182 43.4522 14.9867 43.207 15.2373C42.9193 15.531 42.62 15.8168 42.2111 15.9325C42.0495 15.9782 41.875 15.9968 41.7071 15.9929C41.6377 15.9913 41.5485 15.9119 41.5054 15.8443C41.1624 15.3065 40.8265 14.7641 40.4936 14.2198C40.4555 14.1569 40.4489 14.0745 40.4219 13.9814ZM42.2099 15.5696C42.5633 15.4009 42.8403 15.1651 43.1017 14.8815C43.4979 14.4517 43.8578 13.9733 44.411 13.7098C44.6657 13.5885 44.6918 13.4226 44.5444 13.1721C44.438 12.9916 44.343 12.8036 44.2248 12.6312C44.1481 12.5191 44.0515 12.4188 43.8861 12.4237C43.8126 12.4258 43.72 12.3968 43.6664 12.3483C43.4937 12.1925 43.3258 12.2285 43.1798 12.361C42.865 12.6467 42.5442 12.9305 42.2633 13.2481C42.0895 13.4449 41.9178 13.6374 41.7038 13.7872C41.557 13.89 41.3983 13.9754 41.2453 14.0696C41.0563 14.1861 40.9735 14.4055 41.0677 14.5574C41.1978 14.7674 41.3302 14.9761 41.4704 15.1793C41.5138 15.242 41.5893 15.3324 41.6441 15.3285C41.8782 15.3113 42.0357 15.456 42.2099 15.5696Z" fill="#CC0001"/>
<path fill-rule="evenodd" clip-rule="evenodd" d="M26.7399 3.10529C26.7559 3.53275 26.6335 3.91354 26.3997 4.27048C26.3154 4.39906 26.2312 4.46399 26.0828 4.43786C25.6774 4.36647 25.2729 4.29039 24.8668 4.22357C24.7177 4.19897 24.5644 4.1996 24.4141 4.17969C24.326 4.16803 24.2368 4.14698 24.1538 4.11502C24.0488 4.0747 24.0376 3.98404 24.0664 3.88729C24.0744 3.86028 24.0954 3.8358 24.1142 3.81323C24.3663 3.51144 24.3849 3.14879 24.3665 2.78423C24.347 2.39203 24.3594 1.99869 24.235 1.61245C24.1548 1.36391 24.1686 1.09636 24.2829 0.840725C24.3683 0.649633 24.4084 0.43838 24.4914 0.24602C24.5687 0.0667208 24.7052 -0.0304101 24.9224 0.00851836C25.3287 0.0811763 25.7372 0.142042 26.1456 0.202273C26.3055 0.225858 26.4682 0.252487 26.6283 0.24602C26.8609 0.236636 26.9476 0.428743 26.8485 0.593206C26.4535 1.24852 26.6051 1.93541 26.695 2.62218C26.7158 2.78245 26.7252 2.94413 26.7399 3.10529ZM24.6117 0.692492C24.5542 1.23965 24.5555 1.76398 24.6444 2.28285C24.7083 2.65578 24.7528 3.02021 24.6259 3.38718C24.6063 3.44335 24.6011 3.50612 24.5987 3.56635C24.5901 3.7913 24.7078 3.91594 24.9309 3.9413C25.1209 3.96286 25.312 3.98619 25.4975 4.03019C25.6195 4.0591 25.7252 4.04161 25.8088 3.9659C25.9095 3.87473 26.0129 3.81323 26.15 3.79434C26.2866 3.77545 26.3592 3.6877 26.359 3.542C26.3587 3.36004 26.3807 3.17694 26.367 2.99624C26.3396 2.63448 26.2861 2.27461 26.2593 1.91284C26.236 1.60141 26.2215 1.29252 26.3302 0.983631C26.4195 0.729899 26.2816 0.565943 26.0171 0.525493C25.8789 0.504317 25.7451 0.454103 25.6084 0.421008C25.4531 0.383601 25.2785 0.305998 25.152 0.447763C25.014 0.602462 24.8488 0.667259 24.6117 0.692492Z" fill="#CC0001"/>
<path fill-rule="evenodd" clip-rule="evenodd" d="M26.3379 8.54547C26.3007 8.73225 26.2562 8.87782 26.2454 9.0258C26.215 9.44019 26.3568 9.81362 26.5437 10.1744C26.7649 10.6017 26.9848 11.0354 27.0756 11.5083C27.1394 11.8412 27.1691 12.1956 26.9657 12.5129C26.4418 12.6953 25.8966 12.7841 25.3461 12.8518C25.2171 12.8677 25.0932 12.9257 24.9641 12.9405C24.7691 12.9626 24.7095 12.8952 24.7185 12.6965C24.7199 12.6662 24.718 12.6337 24.7279 12.6059C24.8962 12.1361 24.7138 11.7144 24.5384 11.2973C24.4148 11.0038 24.264 10.7217 24.1243 10.435C23.9271 10.0307 23.8992 9.6011 23.9447 9.16427C23.9694 8.92689 24.1267 8.79616 24.3586 8.75825C24.7561 8.69345 25.15 8.60646 25.5481 8.54649C25.8014 8.50819 26.0607 8.43782 26.3379 8.54547ZM25.5152 8.89671C25.2721 8.93907 25.0236 8.97914 24.7768 9.02846C24.7332 9.03721 24.693 9.0802 24.6585 9.11469C24.5331 9.24022 24.4037 9.36309 24.2909 9.49941C24.2477 9.55165 24.21 9.64891 24.2293 9.70546C24.3279 9.998 24.4483 10.2832 24.5567 10.5724C24.7585 11.1099 25.1015 11.5977 25.1088 12.2045C25.1109 12.3859 25.3309 12.5386 25.4885 12.5101C25.6761 12.4761 25.8669 12.4552 26.0508 12.4067C26.1616 12.3776 26.2721 12.3206 26.3636 12.251C26.4803 12.1623 26.5822 12.0522 26.6814 11.9432C26.7306 11.8891 26.7985 11.8117 26.7908 11.7537C26.7516 11.457 26.6749 11.1722 26.539 10.8979C26.2828 10.3807 25.981 9.87766 25.9681 9.27002C25.9628 9.0102 25.7915 8.88492 25.5152 8.89671Z" fill="#CC0001"/>
<path fill-rule="evenodd" clip-rule="evenodd" d="M12.8144 10.3834C12.7449 9.92369 12.5755 9.52464 12.2271 9.2193C11.9202 8.95048 11.6039 8.6918 11.3043 8.41537C10.9499 8.08835 10.6758 7.71187 10.642 7.20453C10.6323 7.05922 10.6726 6.9541 10.7971 6.86927C11.2656 6.55023 11.7275 6.22131 12.1974 5.90443C12.2822 5.84724 12.3932 5.82885 12.5176 5.7832C12.5879 6.01081 12.6267 6.21053 12.7103 6.38945C12.8472 6.68274 13.0775 6.90858 13.3195 7.11958C13.5509 7.32145 13.7891 7.51583 14.0138 7.72493C14.2541 7.94823 14.4909 8.17965 14.6175 8.49158C14.685 8.65782 14.7504 8.83002 14.7772 9.00564C14.789 9.084 14.7257 9.20713 14.6576 9.25874C14.3092 9.52287 13.9487 9.77127 13.5908 10.023C13.4436 10.1264 13.2791 10.2095 13.1474 10.3292C13.0465 10.4208 12.9555 10.4243 12.8144 10.3834ZM11.0567 7.60992C11.2926 8.0219 11.6733 8.34855 12.081 8.65541C12.4233 8.9132 12.7075 9.23262 12.9237 9.60478C13.0424 9.80906 13.2296 9.88806 13.4176 9.75454C13.7489 9.51894 14.1685 9.34991 14.1917 8.8465C14.1933 8.81227 14.2248 8.77587 14.2499 8.74709C14.3313 8.65389 14.3092 8.5735 14.2452 8.47662C14.0736 8.21667 13.8836 7.97144 13.6332 7.78643C13.1578 7.43544 12.7142 7.05998 12.4235 6.52994C12.3149 6.33226 12.1416 6.30601 11.9495 6.43979C11.7219 6.59816 11.5015 6.76694 11.3194 6.90071C11.2266 7.15166 11.1478 7.36405 11.0567 7.60992Z" fill="#CC0001"/>
<path fill-rule="evenodd" clip-rule="evenodd" d="M6.47538 17.5381C6.42161 17.4559 6.36481 17.3957 6.33856 17.3244C6.17904 16.8906 5.80586 16.6899 5.43014 16.504C5.05696 16.3194 4.66223 16.178 4.28917 15.9931C3.87973 15.7902 3.54839 15.4958 3.35667 15.0663C3.31698 14.9773 3.30404 14.907 3.37417 14.8179C3.78044 14.3016 4.17683 13.7773 4.58285 13.2609C4.67098 13.1488 4.82707 13.155 4.88375 13.2835C5.16107 13.9121 5.74068 14.1302 6.31092 14.3661C6.49567 14.4426 6.6827 14.5151 6.86251 14.6018C7.23505 14.7814 7.54952 15.0364 7.78386 15.3785C7.95669 15.6307 7.9416 15.7551 7.75063 16.0038C7.442 16.4057 7.13792 16.8111 6.82358 17.2086C6.74002 17.3143 6.62691 17.3966 6.47538 17.5381ZM4.67237 13.7912C4.57981 13.8596 4.47443 13.9163 4.39772 13.9994C4.29767 14.1077 4.2278 14.2435 4.13118 14.3557C3.98916 14.5209 3.87187 14.6826 3.95733 14.9207C3.97838 14.9788 3.94795 15.0603 3.92817 15.1272C3.8881 15.264 3.94148 15.3624 4.04356 15.4437C4.26204 15.618 4.49307 15.7687 4.75708 15.8707C5.32338 16.09 5.89361 16.3005 6.34312 16.7405C6.5029 16.8969 6.68575 16.8918 6.80925 16.6999C7.01353 16.382 7.41816 16.1437 7.28184 15.6652C7.26942 15.6216 7.29097 15.5645 7.30708 15.5171C7.36249 15.353 7.28844 15.2368 7.15796 15.1611C6.89167 15.0068 6.62691 14.8449 6.34541 14.7236C5.83452 14.5033 5.2989 14.3348 4.91139 13.8987C4.86498 13.8466 4.77343 13.8348 4.67237 13.7912Z" fill="#CC0001"/>
<path fill-rule="evenodd" clip-rule="evenodd" d="M24.4211 20.0413C24.2592 19.9969 24.0856 19.9761 23.9376 19.9034C23.6417 19.7577 23.5203 19.3534 23.686 19.0722C24.0457 18.4615 24.8368 18.4262 25.2849 18.8245C25.5687 19.0765 25.4429 19.7085 25.1029 19.8676C24.8899 19.9674 24.6704 20.0365 24.4211 20.0413Z" fill="#CC0001"/>
<path fill-rule="evenodd" clip-rule="evenodd" d="M24.1322 16.977C24.1589 17.0227 24.1725 17.0388 24.1787 17.0573C24.2434 17.2517 24.2148 17.4259 24.1083 17.496C23.987 17.5762 23.6957 17.584 23.5917 17.4865C23.5266 17.4254 23.4421 17.3023 23.4647 17.2479C23.5085 17.1424 23.6073 17.0222 23.71 16.9878C23.8427 16.9434 24.0013 16.977 24.1322 16.977Z" fill="#CC0001"/>
<path fill-rule="evenodd" clip-rule="evenodd" d="M25.2305 21.0618C25.3967 21.0485 25.501 21.1424 25.555 21.2791C25.6085 21.4152 25.5025 21.4999 25.4121 21.583C25.284 21.7008 25.1309 21.6943 24.9861 21.6507C24.863 21.6136 24.7944 21.508 24.7969 21.372C24.7992 21.2457 24.9196 21.103 25.0503 21.0756C25.1088 21.0633 25.1703 21.066 25.2305 21.0618Z" fill="#CC0001"/>
<path fill-rule="evenodd" clip-rule="evenodd" d="M31.04 23.7894C30.8021 23.8336 30.5842 23.7513 30.3778 23.6391C30.0981 23.4871 30.0045 23.2119 29.9906 22.9258C29.9783 22.6706 30.3214 22.3947 30.6158 22.3538C31.2056 22.2722 31.6571 22.6141 31.8518 23.1463C31.8752 23.2105 31.8565 23.3032 31.8284 23.3708C31.684 23.7208 31.4094 23.8434 31.04 23.7894Z" fill="#CC0001"/>
<path fill-rule="evenodd" clip-rule="evenodd" d="M30.5405 25.5478C30.4298 25.4934 30.3001 25.4598 30.2123 25.3799C30.0566 25.2383 30.1143 24.9976 30.3097 24.9213C30.5512 24.8271 30.8088 24.9959 30.8938 25.2057C30.9558 25.3589 30.7766 25.5155 30.5405 25.5478Z" fill="#CC0001"/>
<path fill-rule="evenodd" clip-rule="evenodd" d="M31.2539 20.6717C31.534 20.6502 31.7098 20.8428 31.6798 21.0614C31.6605 21.2011 31.591 21.2795 31.4561 21.3018C31.2599 21.3341 31.0923 21.2638 30.9822 21.1101C30.9333 21.0417 30.9197 20.9127 30.9486 20.8324C30.9971 20.6992 31.1268 20.6537 31.2539 20.6717Z" fill="#CC0001"/>
<path fill-rule="evenodd" clip-rule="evenodd" d="M17.3598 22.0321C16.9739 22.0832 16.7201 21.7719 16.7699 21.45C16.8238 21.1031 17.2022 20.7394 17.5562 20.712C17.6467 20.7051 17.7384 20.7028 17.829 20.7077C18.2654 20.7318 18.4782 21.1357 18.2569 21.5171C18.0552 21.8647 17.761 22.0336 17.3598 22.0321Z" fill="#CC0001"/>
<path fill-rule="evenodd" clip-rule="evenodd" d="M18.5362 23.0855C18.4604 22.7039 18.5592 22.5566 18.8528 22.5606C18.9741 22.5623 19.1011 22.567 19.1286 22.728C19.1527 22.869 19.0509 23.0355 18.9014 23.065C18.7868 23.0877 18.6661 23.0795 18.5362 23.0855Z" fill="#CC0001"/>
<path fill-rule="evenodd" clip-rule="evenodd" d="M15.9902 19.9539C16.0533 19.7953 16.1212 19.6453 16.3349 19.6373C16.5113 19.6307 16.6123 19.6828 16.6371 19.815C16.6577 19.9259 16.5441 20.1075 16.4276 20.1498C16.2507 20.214 16.1188 20.1563 15.9902 19.9539Z" fill="#CC0001"/>
<path fill-rule="evenodd" clip-rule="evenodd" d="M36.8412 25.5986C36.3503 25.5946 35.8865 25.1091 35.9374 24.6789C35.9613 24.4771 36.1028 24.3173 36.3012 24.2911C36.6852 24.2402 37.0172 24.3237 37.2652 24.655C37.424 24.8669 37.4318 25.1038 37.3358 25.3107C37.2481 25.4995 37.0631 25.6363 36.8412 25.5986Z" fill="#CC0001"/>
<path fill-rule="evenodd" clip-rule="evenodd" d="M37.1484 22.9457C37.2663 22.9457 37.3764 22.9344 37.4833 22.9484C37.6332 22.9679 37.7101 23.0888 37.7314 23.2173C37.7434 23.2895 37.692 23.3909 37.6379 23.4506C37.5665 23.5293 37.3396 23.508 37.2408 23.4361C37.0656 23.3086 37.1049 23.1423 37.1484 22.9457Z" fill="#CC0001"/>
<path fill-rule="evenodd" clip-rule="evenodd" d="M35.9509 26.8937C35.7525 26.9162 35.5829 26.7418 35.588 26.5787C35.5924 26.4412 35.6925 26.3198 35.8216 26.3165C35.9796 26.3123 36.2214 26.5261 36.2188 26.6676C36.2164 26.7887 36.095 26.8913 35.9509 26.8937Z" fill="#CC0001"/>
<path fill-rule="evenodd" clip-rule="evenodd" d="M39.5182 35.1072C39.5016 35.2371 39.505 35.3737 39.4639 35.4954C39.3882 35.7192 39.1583 35.8532 38.9402 35.829C38.7402 35.8067 38.4797 35.5636 38.4529 35.3446C38.4246 35.1142 38.422 34.8851 38.5633 34.6735C38.7092 34.4553 38.9227 34.3484 39.1553 34.4097C39.3306 34.456 39.4844 34.6699 39.4993 34.8935C39.504 34.964 39.5 35.0351 39.5 35.1059C39.5061 35.1063 39.5122 35.1067 39.5182 35.1072Z" fill="#CC0001"/>
<path fill-rule="evenodd" clip-rule="evenodd" d="M37.1857 35.6417C37.0826 35.4559 37.039 35.2975 37.1367 35.1284C37.2193 34.9855 37.389 34.9611 37.4821 35.0897C37.5863 35.234 37.5661 35.3991 37.505 35.5502C37.444 35.7008 37.3089 35.6472 37.1857 35.6417Z" fill="#CC0001"/>
<path fill-rule="evenodd" clip-rule="evenodd" d="M40.9173 34.9091C40.9173 35.0617 40.8034 35.2108 40.6845 35.2137C40.5699 35.2165 40.4371 35.0595 40.4356 34.9194C40.4335 34.7386 40.545 34.6022 40.6907 34.6076C40.8328 34.6125 40.9173 34.7247 40.9173 34.9091Z" fill="#CC0001"/>
<path fill-rule="evenodd" clip-rule="evenodd" d="M18.2091 13.4005C18.2322 13.542 18.1633 13.6734 18.0394 13.7757C17.7129 14.0453 17.4337 14.1205 17.1031 13.9189C16.9115 13.8021 16.8145 13.5979 16.9156 13.4033C17.0226 13.197 17.174 13.008 17.4329 12.9784C17.5729 12.9624 17.717 12.9604 17.8574 12.9734C18.1127 12.9973 18.2067 13.1128 18.2091 13.4005Z" fill="#CC0001"/>
<path fill-rule="evenodd" clip-rule="evenodd" d="M16.4629 12.0783C16.6168 11.8114 16.7173 11.737 16.8991 11.8007C16.9766 11.8279 17.0915 11.9556 17.0765 11.9977C17.0409 12.099 16.9523 12.1983 16.8593 12.2588C16.7387 12.3374 16.6299 12.2774 16.4629 12.0783Z" fill="#CC0001"/>
<path fill-rule="evenodd" clip-rule="evenodd" d="M18.2912 15.1196C18.1236 15.1191 18.0101 15.0348 18.0158 14.915C18.0215 14.8002 18.2205 14.6568 18.3723 14.6582C18.5044 14.6595 18.6217 14.7533 18.6225 14.8583C18.6236 15.0214 18.4981 15.1203 18.2912 15.1196Z" fill="#CC0001"/>
<path fill-rule="evenodd" clip-rule="evenodd" d="M30.2351 14.4103C29.9696 14.451 29.7582 14.3173 29.5755 14.1343C29.3584 13.9169 29.3871 13.7186 29.6184 13.489C29.833 13.2758 30.1003 13.2889 30.3184 13.3845C30.557 13.489 30.7848 13.668 30.7536 14.0074C30.7287 14.2802 30.6436 14.3873 30.3688 14.41C30.3287 14.4133 30.2883 14.4103 30.2351 14.4103Z" fill="#CC0001"/>
<path fill-rule="evenodd" clip-rule="evenodd" d="M30.4937 12.5402C30.3048 12.543 30.1518 12.4284 30.1504 12.2827C30.1491 12.1527 30.2581 12.0604 30.4124 12.0605C30.5749 12.0607 30.7109 12.1789 30.7166 12.3252C30.7222 12.4648 30.6465 12.5378 30.4937 12.5402Z" fill="#CC0001"/>
<path fill-rule="evenodd" clip-rule="evenodd" d="M29.9896 15.7337C29.7407 15.7524 29.592 15.6944 29.5376 15.5388C29.5076 15.4531 29.5127 15.3727 29.6119 15.3041C29.7436 15.2128 29.8483 15.2211 29.9649 15.3181C30.1012 15.4317 30.1066 15.4876 29.9896 15.7337Z" fill="#CC0001"/>
<path fill-rule="evenodd" clip-rule="evenodd" d="M30.3072 6.30666C29.977 6.33849 29.7768 6.10251 29.5863 5.88669C29.4465 5.72819 29.5588 5.40218 29.7377 5.2774C30.1685 4.97726 30.8066 5.42779 30.849 5.82861C30.8779 6.10162 30.6514 6.30818 30.3072 6.30666Z" fill="#CC0001"/>
<path fill-rule="evenodd" clip-rule="evenodd" d="M29.6728 7.53484C29.5125 7.52356 29.4082 7.46941 29.3413 7.33817C29.2878 7.23369 29.3035 7.15279 29.3933 7.07493C29.4994 6.98287 29.6052 6.97767 29.74 7.0748C29.8521 7.15532 29.948 7.25689 29.8753 7.39878C29.8429 7.46206 29.7424 7.49059 29.6728 7.53484Z" fill="#CC0001"/>
<path fill-rule="evenodd" clip-rule="evenodd" d="M31.0194 4.43103C30.8481 4.4692 30.682 4.52043 30.573 4.35812C30.5054 4.25744 30.491 4.11504 30.5943 4.02767C30.646 3.98393 30.764 3.97759 30.8334 4.00384C31.0325 4.07878 31.0486 4.13203 31.0194 4.43103Z" fill="#CC0001"/>
<path fill-rule="evenodd" clip-rule="evenodd" d="M20.2765 7.40234C20.3922 7.4291 20.5217 7.43138 20.621 7.4873C20.9104 7.64986 20.9251 7.96865 20.6521 8.20792C20.4496 8.38532 20.211 8.48473 19.9293 8.44428C19.6921 8.41017 19.504 8.27627 19.4692 8.06869C19.434 7.86074 19.5513 7.7016 19.7017 7.57581C19.8522 7.45002 19.9937 7.42022 20.2765 7.40234Z" fill="#CC0001"/>
<path fill-rule="evenodd" clip-rule="evenodd" d="M19.6298 6.45944C19.6224 6.61452 19.4897 6.73561 19.3317 6.7313C19.196 6.72763 19.115 6.6395 19.1152 6.49596C19.1156 6.33175 19.2649 6.19899 19.4348 6.21179C19.5754 6.22257 19.6374 6.30106 19.6298 6.45944Z" fill="#CC0001"/>
<path fill-rule="evenodd" clip-rule="evenodd" d="M21.1297 9.149C21.1721 9.2876 21.2009 9.41237 21.0807 9.49302C20.9457 9.58368 20.7989 9.58914 20.6663 9.46918C20.6488 9.14558 20.7295 9.08662 21.1297 9.149Z" fill="#CC0001"/>
<path fill-rule="evenodd" clip-rule="evenodd" d="M13.8822 32.4622C13.8797 32.7798 13.7603 32.9763 13.5203 33.0602C13.3164 33.1314 13.081 33.0456 13.0204 32.8421C12.9475 32.5986 12.9285 32.3435 13.0748 32.1101C13.1988 31.912 13.3587 31.8499 13.5955 31.9027C13.7805 31.9439 13.868 32.0675 13.8818 32.3105C13.8847 32.3608 13.8822 32.4116 13.8822 32.4622Z" fill="#CC0001"/>
<path fill-rule="evenodd" clip-rule="evenodd" d="M14.9245 32.8446C14.7507 32.7179 14.6355 32.6108 14.7527 32.4403C14.8041 32.3651 14.9099 32.2572 14.9654 32.2707C15.0538 32.2921 15.1683 32.3918 15.1873 32.4772C15.2313 32.675 15.0401 32.7293 14.9245 32.8446Z" fill="#CC0001"/>
<path fill-rule="evenodd" clip-rule="evenodd" d="M12.1701 32.413C12.1691 32.5401 12.0059 32.7187 11.8906 32.719C11.8012 32.7191 11.6961 32.5756 11.6953 32.4522C11.6946 32.315 11.8042 32.1788 11.9179 32.1759C12.0688 32.1722 12.1712 32.2684 12.1701 32.413Z" fill="#CC0001"/>
<path fill-rule="evenodd" clip-rule="evenodd" d="M8.75725 26.959C9.05105 27.0325 9.18863 27.1823 9.20132 27.4751C9.21564 27.81 9.09138 28.0407 8.80239 28.1874C8.57174 28.3045 8.25346 28.1759 8.22595 27.8713C8.18512 27.4211 8.38458 27.1496 8.75725 26.959Z" fill="#CC0001"/>
<path fill-rule="evenodd" clip-rule="evenodd" d="M10.023 28.1319C9.96228 27.7185 10.0226 27.6341 10.3391 27.6664C10.4534 28.075 10.3758 28.1964 10.023 28.1319Z" fill="#CC0001"/>
<path fill-rule="evenodd" clip-rule="evenodd" d="M7.25397 27.0195C7.53763 27.3034 7.5091 27.45 7.16153 27.583C6.9206 27.3608 6.92986 27.2947 7.25397 27.0195Z" fill="#CC0001"/>
<path fill-rule="evenodd" clip-rule="evenodd" d="M43.4653 25.5833C43.1074 25.454 42.9183 25.2478 42.811 24.9565C42.7434 24.773 42.8006 24.5373 42.9668 24.3842C43.0873 24.2733 43.2586 24.2678 43.4446 24.3689C43.7356 24.527 43.9189 24.9251 43.7927 25.2229C43.7316 25.3668 43.5728 25.4695 43.4653 25.5833Z" fill="#CC0001"/>
<path fill-rule="evenodd" clip-rule="evenodd" d="M41.8391 25.5011C41.9451 25.494 42.0415 25.4876 42.147 25.4805C42.1825 25.5549 42.2169 25.6145 42.2401 25.678C42.2852 25.8018 42.2375 25.9501 42.1471 25.9858C42.0379 26.0286 41.8542 25.9187 41.8209 25.7882C41.8135 25.7593 41.811 25.7277 41.8134 25.6979C41.8183 25.639 41.8285 25.5804 41.8391 25.5011Z" fill="#CC0001"/>
<path fill-rule="evenodd" clip-rule="evenodd" d="M44.394 23.8813C44.684 23.8199 44.8388 23.9379 44.791 24.1747C44.7787 24.2352 44.7295 24.3216 44.682 24.3331C44.6194 24.3483 44.5308 24.3175 44.4724 24.2782C44.3306 24.1827 44.363 24.0377 44.394 23.8813Z" fill="#CC0001"/>
<path fill-rule="evenodd" clip-rule="evenodd" d="M14.8607 37.4531C14.8936 37.469 14.9889 37.499 15.0651 37.5548C15.3167 37.7384 15.4012 38.1299 15.3228 38.4107C15.2307 38.74 14.7739 38.7516 14.6035 38.5561C14.4362 38.364 14.2828 38.1456 14.3374 37.854C14.3744 37.6568 14.5948 37.4524 14.8607 37.4531Z" fill="#CC0001"/>
<path fill-rule="evenodd" clip-rule="evenodd" d="M13.6784 38.5993C13.7512 38.7592 13.8011 38.915 13.6572 39.028C13.6109 39.0645 13.4816 39.0363 13.4148 38.9966C13.2994 38.9281 13.2606 38.7526 13.3103 38.6496C13.353 38.5604 13.4167 38.5507 13.6784 38.5993Z" fill="#CC0001"/>
<path fill-rule="evenodd" clip-rule="evenodd" d="M16.1762 37.0508C16.244 37.1258 16.304 37.1884 16.3594 37.2547C16.426 37.3343 16.4349 37.4251 16.3602 37.498C16.3158 37.5414 16.2267 37.5957 16.1891 37.578C16.1071 37.5395 16.0212 37.4705 15.9804 37.3915C15.927 37.2876 15.9805 37.2103 16.1762 37.0508Z" fill="#CC0001"/>
<path fill-rule="evenodd" clip-rule="evenodd" d="M14.6612 25.6882C14.6563 26.0701 14.2228 26.4149 13.8477 26.3353C13.5744 26.2772 13.4306 25.9702 13.574 25.7283C13.7268 25.4704 13.9066 25.2577 14.2556 25.2618C14.5256 25.2651 14.6905 25.3841 14.6612 25.6882Z" fill="#CC0001"/>
<path fill-rule="evenodd" clip-rule="evenodd" d="M13.1473 24.6218C13.1903 24.9391 13.1731 24.9729 12.9969 25.0675C12.8852 25.1275 12.7904 25.0996 12.7353 25.0101C12.6951 24.9447 12.6762 24.8381 12.6997 24.767C12.7511 24.611 12.8657 24.5814 13.1473 24.6218Z" fill="#CC0001"/>
<path fill-rule="evenodd" clip-rule="evenodd" d="M15.0677 26.9974C14.9903 26.7332 15.005 26.7022 15.1872 26.5951C15.2749 26.5435 15.3673 26.5051 15.4268 26.5948C15.4701 26.6604 15.4889 26.7728 15.4649 26.8467C15.4064 27.0265 15.2536 27.0395 15.0677 26.9974Z" fill="#CC0001"/>
<path fill-rule="evenodd" clip-rule="evenodd" d="M39.751 29.8349C39.8944 29.8157 39.9942 29.8941 40.0745 30.0302C40.242 30.3141 40.2842 30.5913 40.0912 30.8827C39.928 31.1289 39.5088 31.1437 39.3791 30.8843C39.258 30.6424 39.1652 30.3894 39.3182 30.1073C39.4358 29.8903 39.49 29.8306 39.751 29.8349Z" fill="#CC0001"/>
<path fill-rule="evenodd" clip-rule="evenodd" d="M41.2538 30.3954C41.0051 30.2944 40.9337 30.1521 41.0288 29.9465C41.0947 29.8041 41.2181 29.782 41.3377 29.8912C41.516 30.0544 41.4901 30.2098 41.2538 30.3954Z" fill="#CC0001"/>
<path fill-rule="evenodd" clip-rule="evenodd" d="M38.2812 31.0872C38.1568 31.0859 38.0047 30.914 38.012 30.7826C38.0192 30.6491 38.1365 30.5415 38.271 30.545C38.3879 30.5481 38.4844 30.6802 38.4771 30.827C38.4699 30.9681 38.3794 31.0882 38.2812 31.0872Z" fill="#CC0001"/>
<path fill-rule="evenodd" clip-rule="evenodd" d="M8.1556 36.4744C8.15332 36.8334 7.94854 37.0462 7.65283 36.9951C7.61365 36.9884 7.57295 36.9789 7.5382 36.9607C7.20699 36.7893 7.08133 36.2443 7.30172 35.9409C7.42586 35.7698 7.72663 35.7386 7.89211 35.8923C8.04059 36.0304 8.18261 36.2267 8.1556 36.4744Z" fill="#CC0001"/>
<path fill-rule="evenodd" clip-rule="evenodd" d="M9.24739 35.9979C9.0653 36.0475 8.9144 36.056 8.86508 35.8814C8.83845 35.7873 8.85975 35.6577 8.9092 35.5735C8.93342 35.5323 9.09117 35.5238 9.15444 35.5599C9.33044 35.6602 9.27807 35.8284 9.24739 35.9979Z" fill="#CC0001"/>
<path fill-rule="evenodd" clip-rule="evenodd" d="M6.49 37.0727C6.47022 37.1599 6.48771 37.2932 6.32236 37.2924C6.17553 37.2918 6.08017 37.1547 6.0841 36.9669C6.08676 36.8353 6.13482 36.7534 6.27824 36.7539C6.4214 36.7543 6.49494 36.8585 6.49 37.0727Z" fill="#CC0001"/>
<path fill-rule="evenodd" clip-rule="evenodd" d="M42.9036 19.9018C42.856 20.0893 42.7996 20.2236 42.6521 20.3042C42.5173 20.378 42.4017 20.3408 42.2839 20.2668C42.0755 20.1361 41.9823 19.917 41.872 19.7163C41.808 19.5999 42.0002 19.3362 42.1525 19.3111C42.3517 19.2783 42.5428 19.3034 42.6662 19.4829C42.7614 19.6219 42.8337 19.7767 42.9036 19.9018Z" fill="#CC0001"/>
<path fill-rule="evenodd" clip-rule="evenodd" d="M43.3147 18.6133C43.4371 18.6108 43.5748 18.7454 43.5824 18.881C43.5904 19.0167 43.498 19.0494 43.3887 19.0537C43.2516 19.0593 43.1229 18.9302 43.1211 18.7906C43.1197 18.6781 43.1877 18.6159 43.3147 18.6133Z" fill="#CC0001"/>
<path fill-rule="evenodd" clip-rule="evenodd" d="M41.477 21.0412C41.3931 20.9696 41.3137 20.9209 41.2608 20.8519C41.194 20.7646 41.1922 20.6595 41.2862 20.585C41.3786 20.5115 41.5337 20.5633 41.5865 20.6745C41.6462 20.8008 41.636 20.8402 41.477 21.0412Z" fill="#CC0001"/>
<path fill-rule="evenodd" clip-rule="evenodd" d="M36.1673 11.1327C35.9477 11.1483 35.783 11.0514 35.6356 10.9259C35.5128 10.8214 35.4683 10.4899 35.5475 10.3644C35.64 10.218 35.9095 10.1558 36.094 10.2318C36.2593 10.2999 36.3726 10.4184 36.4701 10.5642C36.5531 10.6883 36.6244 10.812 36.5414 10.9545C36.4577 11.0977 36.3201 11.1543 36.1673 11.1327Z" fill="#CC0001"/>
<path fill-rule="evenodd" clip-rule="evenodd" d="M35.5451 12.1738C35.4167 12.1716 35.2435 12.0106 35.2831 11.9047C35.3073 11.8401 35.4047 11.7731 35.477 11.7625C35.6271 11.7407 35.7316 11.8503 35.7302 11.9905C35.7291 12.1178 35.6706 12.1758 35.5451 12.1738Z" fill="#CC0001"/>
<path fill-rule="evenodd" clip-rule="evenodd" d="M36.5397 9.23151C36.7126 9.24165 36.7845 9.3152 36.7719 9.47142C36.7629 9.58351 36.7209 9.66302 36.5893 9.65871C36.4577 9.6544 36.3313 9.51986 36.332 9.38012C36.3325 9.2674 36.3947 9.22289 36.5397 9.23151Z" fill="#CC0001"/>
<path fill-rule="evenodd" clip-rule="evenodd" d="M37.315 16.671C37.5605 16.6578 37.7399 16.7687 37.8735 16.9667C38.0327 17.2023 37.9306 17.4762 37.6541 17.5558C37.3695 17.6376 36.9346 17.3392 36.9165 17.0496C36.8977 16.7523 36.9846 16.6698 37.315 16.671Z" fill="#CC0001"/>
<path fill-rule="evenodd" clip-rule="evenodd" d="M38.1269 16.006C38.0461 16.006 37.9513 16.0268 37.873 15.9994C37.8104 15.9775 37.7318 15.901 37.7257 15.842C37.7177 15.7656 37.7556 15.6611 37.8116 15.6104C37.8437 15.5813 37.9642 15.616 38.0209 15.656C38.1165 15.7235 38.222 15.8055 38.1269 16.006Z" fill="#CC0001"/>
<path fill-rule="evenodd" clip-rule="evenodd" d="M37.1082 18.4874C36.8098 18.5477 36.8098 18.5477 36.6602 18.3149C36.7034 18.1888 36.7884 18.106 36.9258 18.1548C37.0631 18.2039 37.1595 18.3015 37.1082 18.4874Z" fill="#CC0001"/>
<path fill-rule="evenodd" clip-rule="evenodd" d="M11.7254 14.9493C11.6917 14.9269 11.5835 14.8865 11.5256 14.8088C11.4296 14.6795 11.4253 14.5158 11.5196 14.3831C11.5999 14.2703 11.7093 14.1752 11.8175 14.086C11.9178 14.0034 12.039 13.9807 12.153 14.0644C12.2704 14.1505 12.3615 14.256 12.3499 14.4171C12.3337 14.6435 12.0276 14.9406 11.7254 14.9493Z" fill="#CC0001"/>
<path fill-rule="evenodd" clip-rule="evenodd" d="M11.1149 13.6546C10.94 13.9845 10.881 13.9978 10.6934 13.7649C10.8455 13.4964 10.8779 13.4867 11.1149 13.6546Z" fill="#CC0001"/>
<path fill-rule="evenodd" clip-rule="evenodd" d="M12.6883 15.4315C12.6709 15.1406 12.7309 15.0877 13.0208 15.1228C13.0783 15.4371 13.0313 15.4845 12.6883 15.4315Z" fill="#CC0001"/>
<path fill-rule="evenodd" clip-rule="evenodd" d="M10.5706 18.6838C10.7843 18.6852 10.8658 18.7605 10.878 18.9678C10.8963 19.2756 10.5946 19.6046 10.303 19.5952C10.172 19.5909 10.0358 19.4405 10.0228 19.2819C9.99837 18.9809 10.3089 18.6383 10.5706 18.6838Z" fill="#CC0001"/>
<path fill-rule="evenodd" clip-rule="evenodd" d="M11.6397 19.7995C11.6476 19.9721 11.545 20.0628 11.4024 20.0628C11.3108 20.0628 11.2471 20.0302 11.2461 19.9243C11.2451 19.8199 11.3645 19.6727 11.4691 19.6887C11.5399 19.6993 11.601 19.7728 11.6397 19.7995Z" fill="#CC0001"/>
<path fill-rule="evenodd" clip-rule="evenodd" d="M9.27539 18.4831C9.27514 18.1873 9.32801 18.139 9.59646 18.1739C9.65022 18.4826 9.61611 18.5185 9.27539 18.4831Z" fill="#CC0001"/>
<path fill-rule="evenodd" clip-rule="evenodd" d="M7.13464 22.6332C7.09292 22.3679 7.40536 22.0539 7.63652 22.1152C7.71831 22.1369 7.82128 22.1776 7.86008 22.2422C7.95848 22.4068 7.95391 22.6029 7.86895 22.7662C7.79135 22.9153 7.67076 23.0441 7.46712 23.0467C7.20299 23.05 7.12475 22.9603 7.13464 22.6332Z" fill="#CC0001"/>
<path fill-rule="evenodd" clip-rule="evenodd" d="M8.88346 22.9023C8.84212 23.0643 8.83857 23.1586 8.79431 23.2262C8.75754 23.2824 8.67613 23.3233 8.60741 23.3378C8.57951 23.3436 8.50254 23.2617 8.50203 23.2188C8.50077 23.1371 8.51421 23.0299 8.56632 22.9798C8.61844 22.9297 8.72533 22.9368 8.88346 22.9023Z" fill="#CC0001"/>
<path fill-rule="evenodd" clip-rule="evenodd" d="M6.37283 21.8262C6.61135 22.0334 6.61756 22.0799 6.48163 22.2146C6.41417 22.2814 6.3438 22.3481 6.25668 22.2645C6.22029 22.2297 6.19379 22.1467 6.20989 22.103C6.24337 22.0116 6.30829 21.9317 6.37283 21.8262Z" fill="#CC0001"/>
<path fill-rule="evenodd" clip-rule="evenodd" d="M2.03516 25.2058C2.06622 25.0205 2.12874 24.8255 2.34379 24.7201C2.4971 24.6449 2.58662 24.6633 2.68654 24.791C2.87903 25.0371 2.85912 25.3809 2.64799 25.6131C2.56228 25.7073 2.46185 25.7392 2.3495 25.7034C2.1962 25.6544 2.10325 25.5342 2.05037 25.3863C2.03414 25.341 2.04112 25.2869 2.03516 25.2058Z" fill="#CC0001"/>
<path fill-rule="evenodd" clip-rule="evenodd" d="M3.51953 25.2122C3.5312 25.1019 3.57228 24.9906 3.6949 25.0234C3.76718 25.0427 3.84224 25.1438 3.86773 25.2234C3.89575 25.3114 3.7498 25.4419 3.6599 25.4331C3.52016 25.4194 3.52105 25.3139 3.51953 25.2122Z" fill="#CC0001"/>
<path fill-rule="evenodd" clip-rule="evenodd" d="M1.34582 25.0209C1.35786 25.2994 1.3268 25.3679 1.19873 25.3676C1.10489 25.3674 1.00637 25.2626 1.01195 25.1692C1.01993 25.0388 1.12391 24.9894 1.34582 25.0209Z" fill="#CC0001"/>
<path fill-rule="evenodd" clip-rule="evenodd" d="M45.7734 32.78C45.8197 32.6618 45.8491 32.5327 45.9162 32.4278C46.0525 32.2145 46.3356 32.2173 46.4655 32.4329C46.5694 32.6052 46.6646 32.7919 46.5012 32.9868C46.4184 33.0856 46.3392 33.1886 46.2469 33.2782C46.1803 33.343 46.1012 33.3305 46.0308 33.2642C45.8943 33.1355 45.7847 32.9953 45.7734 32.78Z" fill="#CC0001"/>
<path fill-rule="evenodd" clip-rule="evenodd" d="M45.1217 32.8663C45.1271 33.0043 45.0565 33.0988 44.9409 33.0967C44.821 33.0947 44.7589 33.0242 44.747 32.9077C44.7358 32.8009 44.8324 32.6804 44.9315 32.6759C45.0185 32.6722 45.118 32.7717 45.1217 32.8663Z" fill="#CC0001"/>
<path fill-rule="evenodd" clip-rule="evenodd" d="M47.5343 32.4908C47.5513 32.6393 47.6205 32.7867 47.4315 32.8507C47.3366 32.8829 47.2604 32.7957 47.2544 32.6691C47.2475 32.5279 47.3074 32.4845 47.5343 32.4908Z" fill="#CC0001"/>
<path fill-rule="evenodd" clip-rule="evenodd" d="M5.3677 31.9467C5.3677 31.9154 5.36732 31.9052 5.3677 31.8952C5.3767 31.6463 5.45443 31.5158 5.60774 31.4922C5.73873 31.4721 5.93045 31.6085 6.00425 31.7741C6.09568 31.9796 6.0201 32.2889 5.85095 32.4397C5.74874 32.5309 5.65453 32.5301 5.55461 32.4451C5.39332 32.3079 5.34767 32.1283 5.3677 31.9467Z" fill="#CC0001"/>
<path fill-rule="evenodd" clip-rule="evenodd" d="M4.50195 32.5427C4.40266 32.5477 4.29742 32.4452 4.28956 32.3356C4.28081 32.2134 4.38986 32.067 4.48826 32.0879C4.60187 32.112 4.67821 32.1858 4.68379 32.3151C4.68911 32.4372 4.61214 32.5371 4.50195 32.5427Z" fill="#CC0001"/>
<path fill-rule="evenodd" clip-rule="evenodd" d="M6.70898 31.8051C6.70898 31.7035 6.70898 31.5982 6.70898 31.4967C6.84466 31.4298 6.96157 31.4203 7.02688 31.5559C7.05718 31.6188 7.06961 31.7248 7.03626 31.7768C6.95688 31.9005 6.83338 31.8638 6.70898 31.8051Z" fill="#CC0001"/>
<path fill-rule="evenodd" clip-rule="evenodd" d="M47.6153 28.6687C47.5893 28.7323 47.5649 28.8547 47.4974 28.9452C47.2907 29.2224 47.0479 29.1962 46.887 28.8924C46.7559 28.645 46.9006 28.2592 47.1648 28.1518C47.3035 28.0954 47.5329 28.2282 47.5844 28.4024C47.6039 28.469 47.6015 28.5418 47.6153 28.6687Z" fill="#CC0001"/>
<path fill-rule="evenodd" clip-rule="evenodd" d="M45.9554 28.8943C45.7807 28.6866 45.7728 28.6322 45.8958 28.4914C45.9776 28.3981 46.0818 28.4121 46.1301 28.5231C46.1969 28.6763 46.1373 28.8031 45.9554 28.8943Z" fill="#CC0001"/>
<path fill-rule="evenodd" clip-rule="evenodd" d="M48.304 28.7695C48.277 28.473 48.3058 28.4056 48.4524 28.4024C48.5761 28.3997 48.649 28.4867 48.6371 28.6227C48.6235 28.7755 48.557 28.8075 48.304 28.7695Z" fill="#CC0001"/>
<path fill-rule="evenodd" clip-rule="evenodd" d="M50.1936 23.5738C50.1345 23.6702 50.094 23.7882 50.0122 23.8582C49.9011 23.9534 49.7875 23.8677 49.6862 23.7984C49.4662 23.6479 49.405 23.5064 49.4567 23.263C49.4999 23.0588 49.7256 22.9586 49.9006 23.0743C50.0682 23.1851 50.1827 23.3322 50.1936 23.5738Z" fill="#CC0001"/>
<path fill-rule="evenodd" clip-rule="evenodd" d="M50.6357 22.5234C50.889 22.6481 50.8962 22.6728 50.7598 22.9002C50.5196 22.7909 50.5072 22.7575 50.6357 22.5234Z" fill="#CC0001"/>
<path fill-rule="evenodd" clip-rule="evenodd" d="M48.8738 24.0273C49.1484 24.1666 49.1628 24.2122 49.0115 24.4122C48.7737 24.3045 48.7737 24.3045 48.8738 24.0273Z" fill="#CC0001"/>
<path fill-rule="evenodd" clip-rule="evenodd" d="M43.2079 13.9891C43.1531 14.085 43.1203 14.2119 43.0384 14.2691C42.9247 14.3485 42.6927 14.2691 42.6024 14.1503C42.4835 13.9939 42.4754 13.8112 42.5242 13.6322C42.5377 13.5823 42.6195 13.5298 42.6784 13.5174C42.9663 13.4559 43.1663 13.6438 43.2079 13.9891Z" fill="#CC0001"/>
<path fill-rule="evenodd" clip-rule="evenodd" d="M41.8224 14.4949C42.0311 14.4865 42.1448 14.5504 42.1374 14.6747C42.1317 14.7708 42.0864 14.8464 41.9667 14.8376C41.8263 14.8272 41.8029 14.778 41.8224 14.4949Z" fill="#CC0001"/>
<path fill-rule="evenodd" clip-rule="evenodd" d="M43.6151 12.9707C43.8636 12.981 43.8636 12.981 43.8302 13.2777C43.5705 13.3179 43.5328 13.264 43.6151 12.9707Z" fill="#CC0001"/>
<path fill-rule="evenodd" clip-rule="evenodd" d="M25.5065 2.48667C25.4664 2.48667 25.4257 2.49048 25.3862 2.48604C25.1858 2.46321 24.9793 2.29304 24.9994 2.16979C25.0243 2.01699 25.3666 1.83503 25.5338 1.88842C25.6101 1.91276 25.6907 1.9347 25.7571 1.97705C25.8615 2.04375 25.9436 2.13467 25.9166 2.27516C25.8894 2.41642 25.7874 2.46955 25.6569 2.48363C25.6071 2.48895 25.5567 2.48971 25.5065 2.49263C25.5065 2.4906 25.5065 2.48857 25.5065 2.48667Z" fill="#CC0001"/>
<path fill-rule="evenodd" clip-rule="evenodd" d="M25.4617 1.27459C25.379 1.26964 25.2643 1.14018 25.2995 1.06739C25.3287 1.00653 25.4169 0.923092 25.4617 0.932349C25.5335 0.947185 25.6106 1.01972 25.6491 1.08819C25.6821 1.14677 25.5378 1.27915 25.4617 1.27459Z" fill="#CC0001"/>
<path fill-rule="evenodd" clip-rule="evenodd" d="M25.6864 3.35917C25.5817 3.47824 25.4747 3.56256 25.3597 3.41496C25.3264 3.37249 25.3376 3.23224 25.3737 3.2098C25.5179 3.12066 25.6131 3.20726 25.6864 3.35917Z" fill="#CC0001"/>
<path fill-rule="evenodd" clip-rule="evenodd" d="M25.5044 10.9979C25.2579 10.9984 25.122 10.8953 25.1251 10.7099C25.1273 10.568 25.3823 10.3211 25.5354 10.3129C25.7231 10.3026 25.9409 10.5064 25.9352 10.6869C25.9285 10.9015 25.7957 10.9974 25.5044 10.9979Z" fill="#CC0001"/>
<path fill-rule="evenodd" clip-rule="evenodd" d="M25.7402 11.9037C25.6801 11.798 25.6616 11.6984 25.7844 11.6175C25.9237 11.5261 26.0088 11.6074 26.0989 11.7226C26.0358 11.8856 25.9414 11.9868 25.7402 11.9037Z" fill="#CC0001"/>
<path fill-rule="evenodd" clip-rule="evenodd" d="M24.9893 9.76295C24.9604 9.47612 24.9866 9.4571 25.3077 9.51403C25.3548 9.79642 25.3405 9.80859 24.9893 9.76295Z" fill="#CC0001"/>
<path fill-rule="evenodd" clip-rule="evenodd" d="M12.8256 7.71484C12.9126 7.77165 13.0307 7.81781 13.1016 7.90315C13.1821 8.00028 13.1281 8.12137 13.0439 8.20088C12.9525 8.28723 12.8529 8.3798 12.7393 8.42405C12.5622 8.49303 12.3924 8.42938 12.3405 8.31399C12.2639 8.14293 12.3395 7.89934 12.507 7.81679C12.5955 7.77305 12.6966 7.75491 12.8256 7.71484Z" fill="#CC0001"/>
<path fill-rule="evenodd" clip-rule="evenodd" d="M13.3185 8.74805C13.4442 8.75705 13.5485 8.76453 13.6907 8.77468C13.6572 8.86775 13.6516 8.94383 13.6105 8.98238C13.5563 9.03335 13.4669 9.09358 13.4055 9.08192C13.2291 9.04806 13.2859 8.91238 13.3185 8.74805Z" fill="#CC0001"/>
<path fill-rule="evenodd" clip-rule="evenodd" d="M12.1815 7.24771C12.052 7.34535 11.9784 7.43842 11.8876 7.46023C11.7662 7.4894 11.7499 7.3697 11.7521 7.27865C11.7548 7.15705 11.8306 7.08959 11.9489 7.11153C12.0139 7.1237 12.0707 7.18063 12.1815 7.24771Z" fill="#CC0001"/>
<path fill-rule="evenodd" clip-rule="evenodd" d="M5.696 14.8418C5.79605 14.9235 5.87314 14.9841 5.94732 15.0482C5.96913 15.0673 5.98739 15.0944 5.99855 15.1214C6.04813 15.241 5.87859 15.5779 5.73049 15.6584C5.59012 15.7349 5.36327 15.6867 5.2636 15.5571C5.18372 15.4535 5.19323 15.3493 5.28059 15.2577C5.41069 15.1215 5.5465 14.9909 5.696 14.8418Z" fill="#CC0001"/>
<path fill-rule="evenodd" clip-rule="evenodd" d="M4.82969 14.646C4.80611 14.7313 4.79977 14.8247 4.75463 14.8919C4.72597 14.9346 4.61717 14.9739 4.58395 14.9526C4.51484 14.9082 4.44104 14.8347 4.51002 14.7265C4.57558 14.6237 4.64786 14.5505 4.82969 14.646Z" fill="#CC0001"/>
<path fill-rule="evenodd" clip-rule="evenodd" d="M6.46144 16.0494C6.45548 15.9601 6.44978 15.875 6.44141 15.75C6.56783 15.7599 6.66673 15.7676 6.78289 15.7768C6.73432 15.963 6.66686 16.0684 6.46144 16.0494Z" fill="#CC0001"/>
</svg>
