<svg width="20" height="20" viewBox="0 0 20 20" fill="none" xmlns="http://www.w3.org/2000/svg">
<path d="M11.6666 9.99996C11.6666 10.9204 10.9204 11.6666 9.99992 11.6666C9.07944 11.6666 8.33325 10.9204 8.33325 9.99996C8.33325 9.07949 9.07944 8.33329 9.99992 8.33329C10.9204 8.33329 11.6666 9.07949 11.6666 9.99996Z" stroke="white" stroke-width="1.2"/>
<path d="M11.6666 3.33329C11.6666 4.25377 10.9204 4.99996 9.99992 4.99996C9.07944 4.99996 8.33325 4.25377 8.33325 3.33329C8.33325 2.41282 9.07944 1.66663 9.99992 1.66663C10.9204 1.66663 11.6666 2.41282 11.6666 3.33329Z" stroke="white" stroke-width="1.2"/>
<path d="M11.6666 16.6666C11.6666 17.5871 10.9204 18.3333 9.99992 18.3333C9.07944 18.3333 8.33325 17.5871 8.33325 16.6666C8.33325 15.7462 9.07944 15 9.99992 15C10.9204 15 11.6666 15.7462 11.6666 16.6666Z" stroke="white" stroke-width="1.2"/>
</svg>
