<svg width="23" height="22" viewBox="0 0 23 22" fill="none" xmlns="http://www.w3.org/2000/svg">
<path d="M13.8206 1.83301H9.51228C8.55895 1.83301 7.77979 2.60301 7.77979 3.55634V4.41801C7.77979 5.37134 8.54979 6.14134 9.50312 6.14134H13.8206C14.774 6.14134 15.544 5.37134 15.544 4.41801V3.55634C15.5531 2.60301 14.774 1.83301 13.8206 1.83301Z" fill="white"/>
<path d="M16.4699 4.41819C16.4699 5.87569 15.2782 7.06736 13.8207 7.06736H9.51237C8.05487 7.06736 6.86321 5.87569 6.86321 4.41819C6.86321 3.90486 6.31321 3.58403 5.85487 3.82236C4.56237 4.50986 3.68237 5.87569 3.68237 7.44319V16.069C3.68237 18.324 5.52487 20.1665 7.77987 20.1665H15.5532C17.8082 20.1665 19.6507 18.324 19.6507 16.069V7.44319C19.6507 5.87569 18.7707 4.50986 17.4782 3.82236C17.0199 3.58403 16.4699 3.90486 16.4699 4.41819ZM14.7282 11.669L11.0615 15.3357C10.924 15.4732 10.7499 15.5374 10.5757 15.5374C10.4015 15.5374 10.2274 15.4732 10.0899 15.3357L8.71487 13.9607C8.44904 13.6949 8.44904 13.2549 8.71487 12.989C8.98071 12.7232 9.42071 12.7232 9.68654 12.989L10.5757 13.8782L13.7565 10.6974C14.0224 10.4315 14.4624 10.4315 14.7282 10.6974C14.994 10.9632 14.994 11.4032 14.7282 11.669Z" fill="white"/>
</svg>
