<svg width="66" height="74" viewBox="0 0 66 74" fill="none" xmlns="http://www.w3.org/2000/svg">
<path fill-rule="evenodd" clip-rule="evenodd" d="M27.7694 21.8038C28.8647 21.3799 30.0136 21.1102 31.1832 21.0026C31.2657 20.9955 31.3459 20.9721 31.4192 20.9337C31.4926 20.8953 31.5576 20.8428 31.6104 20.7791C31.6633 20.7154 31.703 20.6418 31.7272 20.5627C31.7514 20.4835 31.7596 20.4004 31.7514 20.318C31.7433 20.2356 31.7188 20.1557 31.6794 20.0829C31.6401 20.0101 31.5867 19.9458 31.5223 19.8938C31.458 19.8417 31.3839 19.803 31.3044 19.7799C31.225 19.7567 31.1417 19.7495 31.0594 19.7588C29.774 19.8776 28.5115 20.1751 27.3082 20.6426C27.1542 20.7037 27.0308 20.8236 26.9652 20.9757C26.8995 21.1279 26.897 21.2998 26.9582 21.4538C27.0194 21.6078 27.1392 21.7312 27.2913 21.7968C27.4435 21.8625 27.6154 21.865 27.7694 21.8038ZM34.2457 20.9788C35.7232 21.0901 37.0757 21.1138 38.3107 21.0613C38.3937 21.0594 38.4755 21.041 38.5512 21.0071C38.627 20.9732 38.6953 20.9246 38.7521 20.864C38.8089 20.8035 38.853 20.7322 38.882 20.6544C38.9109 20.5766 38.9241 20.4938 38.9207 20.4109C38.9173 20.3279 38.8974 20.2465 38.8622 20.1713C38.8269 20.0961 38.7771 20.0287 38.7155 19.973C38.654 19.9173 38.5819 19.8745 38.5036 19.8469C38.4253 19.8194 38.3423 19.8077 38.2594 19.8126C37.0682 19.8626 35.7644 19.8388 34.3394 19.7313C34.1787 19.7271 34.0224 19.7849 33.9031 19.8927C33.7838 20.0005 33.7105 20.1501 33.6984 20.3104C33.6864 20.4708 33.7365 20.6297 33.8384 20.7541C33.9403 20.8785 34.0861 20.959 34.2457 20.9788ZM41.6857 20.6913C43.1432 20.4176 44.3794 20.0126 45.4182 19.5138C45.4922 19.4783 45.5585 19.4285 45.6133 19.3674C45.6681 19.3062 45.7103 19.2348 45.7376 19.1573C45.7648 19.0799 45.7765 18.9978 45.772 18.9158C45.7675 18.8338 45.7469 18.7535 45.7113 18.6795C45.6758 18.6054 45.626 18.5391 45.5648 18.4843C45.5037 18.4295 45.4323 18.3873 45.3548 18.3601C45.2774 18.3329 45.1953 18.3212 45.1133 18.3257C45.0313 18.3302 44.951 18.3508 44.8769 18.3863C43.9244 18.8438 42.7907 19.2126 41.4544 19.4638C41.3713 19.4762 41.2915 19.5053 41.2198 19.5493C41.1481 19.5932 41.0861 19.6512 41.0374 19.7197C40.9886 19.7882 40.9542 19.8659 40.9362 19.948C40.9182 20.0301 40.9169 20.1151 40.9325 20.1977C40.948 20.2803 40.9801 20.359 41.0268 20.4289C41.0735 20.4988 41.1338 20.5586 41.2041 20.6047C41.2744 20.6508 41.3533 20.6822 41.4361 20.6971C41.5188 20.712 41.6037 20.71 41.6857 20.6913ZM47.9657 17.7776C49.0857 16.6963 49.7432 15.4513 50.0394 14.1851C50.0772 14.0236 50.0493 13.8538 49.9619 13.7129C49.8745 13.572 49.7346 13.4716 49.5732 13.4338C49.4117 13.396 49.2419 13.4239 49.101 13.5114C48.9601 13.5988 48.8597 13.7386 48.8219 13.9001C48.5769 14.9513 48.0269 15.9813 47.0982 16.8776C47.0391 16.9345 46.9918 17.0026 46.959 17.0778C46.9262 17.1531 46.9085 17.234 46.907 17.3161C46.9055 17.3981 46.9202 17.4797 46.9502 17.5561C46.9802 17.6325 47.025 17.7022 47.0819 17.7613C47.1389 17.8204 47.2069 17.8677 47.2822 17.9005C47.3574 17.9333 47.4384 17.951 47.5204 17.9525C47.6025 17.954 47.6841 17.9393 47.7605 17.9093C47.8369 17.8793 47.9066 17.8345 47.9657 17.7776ZM49.7419 9.88133C49.2457 8.56383 48.4044 7.44508 47.3794 6.73758C47.2429 6.64359 47.0745 6.60771 46.9115 6.63784C46.7484 6.66796 46.604 6.76161 46.5101 6.8982C46.4161 7.03479 46.3802 7.20312 46.4103 7.36616C46.4404 7.52919 46.5341 7.67359 46.6707 7.76758C47.4994 8.33883 48.1707 9.25383 48.5719 10.3213C48.6303 10.4765 48.7479 10.6021 48.8988 10.6705C49.0498 10.739 49.2218 10.7447 49.3769 10.6863C49.5321 10.628 49.6577 10.5104 49.7262 10.3594C49.7946 10.2085 49.8003 10.0365 49.7419 9.88133ZM33.4569 6.73508C34.1432 3.51508 36.8782 1.94883 38.8507 1.93758C39.4982 1.93383 40.0594 2.08633 40.3507 2.47633C40.5232 2.70758 40.5757 3.01758 40.5094 3.39758C40.4813 3.56102 40.5192 3.72896 40.6148 3.86445C40.7105 3.99995 40.856 4.0919 41.0194 4.12008C41.1829 4.14826 41.3508 4.11035 41.4863 4.01471C41.6218 3.91907 41.7138 3.77352 41.7419 3.61008C41.8769 2.82883 41.7069 2.20258 41.3519 1.72883C40.8557 1.06258 39.9457 0.681326 38.8444 0.687576C36.4432 0.701326 33.0694 2.55508 32.2344 6.47508C32.2159 6.55589 32.2136 6.63958 32.2278 6.72128C32.2419 6.80298 32.2721 6.88105 32.3167 6.95095C32.3613 7.02084 32.4194 7.08117 32.4875 7.12841C32.5557 7.17565 32.6325 7.20886 32.7136 7.22611C32.7947 7.24336 32.8784 7.24429 32.9599 7.22887C33.0414 7.21345 33.1189 7.18197 33.1881 7.13627C33.2573 7.09057 33.3167 7.03157 33.3628 6.96269C33.409 6.89381 33.441 6.81644 33.4569 6.73508Z" fill="white"/>
<path fill-rule="evenodd" clip-rule="evenodd" d="M32.2388 6.73769C33.085 10.6377 36.4463 12.4827 38.8413 12.4977C40.0275 12.5039 40.9887 12.0627 41.4587 11.2989C41.7425 10.8389 41.8662 10.2527 41.7337 9.53644C41.5712 8.65519 40.9913 7.52644 39.7775 6.18644C39.7231 6.12315 39.6566 6.07139 39.5819 6.03421C39.5072 5.99703 39.4258 5.97519 39.3425 5.96997C39.2592 5.96476 39.1758 5.97627 39.097 6.00383C39.0182 6.0314 38.9458 6.07446 38.8839 6.13047C38.8221 6.18648 38.7721 6.25431 38.7368 6.32996C38.7016 6.40561 38.6819 6.48754 38.6789 6.57093C38.6758 6.65432 38.6895 6.73748 38.7191 6.8155C38.7487 6.89351 38.7936 6.96481 38.8512 7.02519C39.6962 7.95894 40.1975 8.75519 40.4175 9.42394C40.5837 9.93394 40.58 10.3427 40.395 10.6439C40.2275 10.9152 39.9275 11.0789 39.5662 11.1689C39.1125 11.2814 38.5687 11.2727 37.995 11.1514C36.1612 10.7639 34.0587 9.23019 33.4612 6.47269C33.4193 6.31766 33.3194 6.18466 33.1822 6.10118C33.045 6.01771 32.881 5.99013 32.724 6.02415C32.5671 6.05818 32.4292 6.1512 32.3389 6.28399C32.2486 6.41679 32.2127 6.57921 32.2388 6.73769Z" fill="white"/>
<path fill-rule="evenodd" clip-rule="evenodd" d="M32.6797 7.85498H41.0484C41.38 7.85498 41.6979 7.72328 41.9323 7.48886C42.1667 7.25444 42.2984 6.9365 42.2984 6.60498C42.2984 6.27346 42.1667 5.95552 41.9323 5.7211C41.6979 5.48668 41.38 5.35498 41.0484 5.35498H32.6797C32.3482 5.35498 32.0302 5.48668 31.7958 5.7211C31.5614 5.95552 31.4297 6.27346 31.4297 6.60498C31.4297 6.9365 31.5614 7.25444 31.7958 7.48886C32.0302 7.72328 32.3482 7.85498 32.6797 7.85498Z" fill="#315BF0"/>
<path fill-rule="evenodd" clip-rule="evenodd" d="M7.375 56.65V63.6613C7.375 65.0413 8.28 66.2575 9.6025 66.6538L32.1025 73.4038C32.6878 73.5801 33.3121 73.5801 33.8975 73.4038L56.3975 66.6538C57.0413 66.461 57.6057 66.0657 58.007 65.5266C58.4083 64.9875 58.625 64.3333 58.625 63.6613V53.665C58.625 53.4993 58.5592 53.3403 58.4419 53.2231C58.3247 53.1059 58.1658 53.04 58 53.04C57.8342 53.04 57.6753 53.1059 57.5581 53.2231C57.4408 53.3403 57.375 53.4993 57.375 53.665V63.6613C57.375 64.4888 56.8312 65.2188 56.0387 65.4575L33.5387 72.2075C33.1873 72.3125 32.8127 72.3125 32.4613 72.2075L9.96125 65.4575C9.57517 65.3413 9.23676 65.1039 8.99611 64.7804C8.75545 64.4569 8.62533 64.0645 8.625 63.6613V56.65C8.625 56.4843 8.55915 56.3253 8.44194 56.2081C8.32473 56.0909 8.16576 56.025 8 56.025C7.83424 56.025 7.67527 56.0909 7.55806 56.2081C7.44085 56.3253 7.375 56.4843 7.375 56.65Z" fill="#5B6283"/>
<path fill-rule="evenodd" clip-rule="evenodd" d="M5.92064 42.4875L1.13814 49.5775C0.97534 49.8181 0.870739 50.0932 0.832609 50.3812C0.794479 50.6692 0.823866 50.962 0.918446 51.2367C1.01303 51.5113 1.17021 51.7602 1.37756 51.9636C1.5849 52.1671 1.83674 52.3195 2.11314 52.4088L24.6069 59.7175C24.9936 59.8432 25.4106 59.8398 25.7952 59.7079C26.1798 59.576 26.5112 59.3228 26.7394 58.9863L33.5181 48.9838C33.5725 48.9035 33.6074 48.8117 33.6202 48.7156C33.6329 48.6195 33.6231 48.5218 33.5916 48.4301C33.5601 48.3385 33.5077 48.2554 33.4385 48.1875C33.3694 48.1195 33.2854 48.0686 33.1931 48.0388L8.19314 39.9263C8.03819 39.8851 7.87334 39.9049 7.73257 39.9817C7.5918 40.0584 7.48582 40.1862 7.43647 40.3388C7.38711 40.4913 7.39815 40.657 7.46729 40.8016C7.53644 40.9463 7.65843 41.0589 7.80814 41.1163L32.0169 48.9713L25.7044 58.285C25.6283 58.3973 25.5178 58.4818 25.3895 58.5258C25.2612 58.5698 25.1221 58.5708 24.9931 58.5288L2.49939 51.22C2.40736 51.1901 2.32354 51.1392 2.25453 51.0714C2.18551 51.0036 2.13319 50.9207 2.10168 50.8292C2.07017 50.7377 2.06034 50.6401 2.07296 50.5442C2.08558 50.4482 2.1203 50.3565 2.17439 50.2763L6.95689 43.1863C7.00441 43.1183 7.03791 43.0415 7.05546 42.9604C7.073 42.8794 7.07423 42.7956 7.05907 42.714C7.04391 42.6325 7.01266 42.5548 6.96715 42.4854C6.92165 42.416 6.86279 42.3564 6.79401 42.3101C6.72524 42.2637 6.64792 42.2315 6.56656 42.2153C6.4852 42.1991 6.40143 42.1993 6.32014 42.2158C6.23885 42.2323 6.16166 42.2648 6.09307 42.3115C6.02448 42.3581 5.96586 42.418 5.92064 42.4875Z" fill="#5B6283"/>
<path fill-rule="evenodd" clip-rule="evenodd" d="M54.2517 41.0802L32.808 48.0389C32.7279 48.0625 32.6533 48.1019 32.5887 48.1547C32.524 48.2076 32.4707 48.2729 32.4317 48.3467C32.3927 48.4206 32.3689 48.5015 32.3617 48.5847C32.3545 48.6679 32.3641 48.7516 32.3898 48.8311C32.4155 48.9105 32.4569 48.984 32.5115 49.0472C32.5661 49.1104 32.6328 49.162 32.7077 49.1989C32.7825 49.2359 32.8641 49.2575 32.9474 49.2624C33.0308 49.2674 33.1143 49.2555 33.193 49.2277L54.6367 42.2702C54.7945 42.2191 54.9256 42.1075 55.0011 41.9598C55.0766 41.8121 55.0903 41.6405 55.0392 41.4827C54.9882 41.3249 54.8765 41.1938 54.7289 41.1183C54.5812 41.0428 54.4095 41.0291 54.2517 41.0802Z" fill="#5B6283"/>
<path fill-rule="evenodd" clip-rule="evenodd" d="M34.2539 51.5951L39.2627 58.9864C39.7314 59.6776 40.6002 59.9751 41.3952 59.7176L63.8889 52.4089C64.1654 52.3195 64.4172 52.1672 64.6245 51.9637C64.8319 51.7603 64.9891 51.5114 65.0836 51.2368C65.1782 50.9621 65.2076 50.6692 65.1695 50.3813C65.1314 50.0933 65.0268 49.8182 64.864 49.5776L58.5202 40.1714C58.4271 40.0342 58.2834 39.9394 58.1206 39.9078C57.9579 39.8761 57.7892 39.9102 57.6515 40.0026C57.5142 40.0957 57.4195 40.2394 57.3878 40.4022C57.3562 40.565 57.3903 40.7336 57.4827 40.8714L63.8277 50.2764C63.8813 50.3567 63.9156 50.4484 63.9279 50.5442C63.9403 50.64 63.9303 50.7374 63.8989 50.8287C63.8674 50.92 63.8153 51.0029 63.7466 51.0708C63.6779 51.1387 63.5944 51.1898 63.5027 51.2201L41.0089 58.5289C40.88 58.5709 40.7409 58.5699 40.6126 58.5259C40.4843 58.4819 40.3738 58.3974 40.2977 58.2851L35.289 50.8939C35.196 50.7566 35.0523 50.6619 34.8894 50.6306C34.7266 50.5993 34.5581 50.634 34.4208 50.727C34.2836 50.82 34.1889 50.9637 34.1576 51.1265C34.1263 51.2893 34.161 51.4579 34.2539 51.5951ZM11.9914 39.8801L33.1952 32.9776C33.2871 32.9471 33.3706 32.8957 33.4394 32.8275C33.5081 32.7593 33.5601 32.6762 33.5913 32.5845C33.6226 32.4929 33.6322 32.3953 33.6194 32.2993C33.6066 32.2034 33.5718 32.1116 33.5177 32.0314L27.4664 23.1314C27.2382 22.7957 26.9071 22.5432 26.523 22.4118C26.1389 22.2803 25.7225 22.2771 25.3364 22.4026L2.84145 29.7114C2.5655 29.8015 2.31421 29.9544 2.10732 30.158C1.90044 30.3617 1.74359 30.6105 1.6491 30.885C1.55462 31.1595 1.52507 31.4521 1.56278 31.74C1.6005 32.0278 1.70444 32.303 1.86644 32.5439L7.4827 40.8714C7.57837 41.002 7.7209 41.0904 7.8804 41.1182C8.03989 41.146 8.20395 41.111 8.33815 41.0204C8.47236 40.9299 8.56628 40.7909 8.60022 40.6326C8.63416 40.4743 8.60548 40.309 8.5202 40.1714L2.90269 31.8451C2.84861 31.7648 2.8139 31.673 2.80128 31.577C2.78867 31.4809 2.7985 31.3833 2.82999 31.2917C2.86149 31.2001 2.9138 31.1171 2.9828 31.0492C3.05181 30.9812 3.13564 30.9302 3.22769 30.9001L25.7227 23.5914C25.8513 23.5495 25.9901 23.5505 26.1181 23.5942C26.2462 23.638 26.3565 23.722 26.4327 23.8339L32.0164 32.0464L11.6052 38.6914C11.4492 38.7439 11.3203 38.8559 11.2464 39.0029C11.1724 39.15 11.1595 39.3202 11.2104 39.4768C11.2612 39.6333 11.3718 39.7635 11.518 39.839C11.6643 39.9145 11.8344 39.9293 11.9914 39.8801Z" fill="#5B6283"/>
<path fill-rule="evenodd" clip-rule="evenodd" d="M32.8064 32.9776L57.8064 41.1151C57.9355 41.1575 58.0749 41.1566 58.2035 41.1126C58.3321 41.0686 58.4428 40.9839 58.5189 40.8714L64.1352 32.5439C64.2972 32.303 64.4011 32.0278 64.4388 31.74C64.4765 31.4521 64.447 31.1595 64.3525 30.885C64.258 30.6105 64.1012 30.3617 63.8943 30.158C63.6874 29.9544 63.4361 29.8015 63.1602 29.7114L40.6652 22.4026C40.2791 22.2771 39.8627 22.2803 39.4786 22.4118C39.0945 22.5432 38.7635 22.7957 38.5352 23.1314L34.1627 29.5614C34.0693 29.6985 34.0343 29.867 34.0652 30.0299C34.0962 30.1928 34.1906 30.3368 34.3277 30.4301C34.4647 30.5234 34.6333 30.5585 34.7962 30.5275C34.9591 30.4966 35.1031 30.4022 35.1964 30.2651L39.5689 23.8339C39.6451 23.722 39.7554 23.638 39.8835 23.5942C40.0115 23.5505 40.1503 23.5495 40.2789 23.5914L62.7739 30.9001C62.8656 30.9306 62.9491 30.9819 63.0178 31.0499C63.0865 31.1179 63.1386 31.2008 63.1701 31.2923C63.2015 31.3837 63.2114 31.4811 63.1991 31.577C63.1868 31.6729 63.1525 31.7646 63.0989 31.8451L57.7452 39.7814L33.1939 31.7889C33.0363 31.7375 32.8647 31.7508 32.7169 31.826C32.5691 31.9011 32.4572 32.0319 32.4058 32.1895C32.3544 32.3471 32.3677 32.5187 32.4429 32.6665C32.518 32.8143 32.6488 32.9262 32.8064 32.9776Z" fill="#5B6283"/>
<path fill-rule="evenodd" clip-rule="evenodd" d="M51.9339 40.5187L33.0002 46.6612L14.0664 40.5187L33.0002 34.355L51.9339 40.5187Z" fill="#315BF0"/>
<path fill-rule="evenodd" clip-rule="evenodd" d="M26.7481 32.3251C26.4119 31.8513 26.1231 31.3751 25.8806 30.8988C25.8052 30.7514 25.6744 30.64 25.5169 30.589C25.3593 30.5379 25.188 30.5515 25.0405 30.6267C24.893 30.7018 24.7813 30.8325 24.73 30.9899C24.6787 31.1473 24.692 31.3187 24.7669 31.4663C25.0356 31.9951 25.3556 32.5238 25.7294 33.0501C25.8255 33.1852 25.9714 33.2765 26.1349 33.3041C26.2984 33.3316 26.4662 33.2931 26.6012 33.1969C26.7363 33.1008 26.8277 32.9549 26.8553 32.7914C26.8828 32.6279 26.8443 32.4602 26.7481 32.3251ZM25.0144 28.2988C24.9027 27.6117 24.8964 26.9116 24.9956 26.2226C25.0197 26.0585 24.9775 25.8915 24.8785 25.7585C24.7794 25.6255 24.6316 25.5372 24.4675 25.5132C24.3034 25.4892 24.1365 25.5313 24.0034 25.6303C23.8704 25.7294 23.7822 25.8772 23.7581 26.0413C23.6416 26.8548 23.6488 27.6812 23.7794 28.4926C23.8051 28.6563 23.8948 28.8032 24.0287 28.9008C24.1627 28.9985 24.33 29.0389 24.4937 29.0132C24.6575 28.9875 24.8044 28.8978 24.902 28.7638C24.9996 28.6299 25.0401 28.4626 25.0144 28.2988Z" fill="white"/>
</svg>
