<svg width="80" height="80" viewBox="0 0 80 80" fill="none" xmlns="http://www.w3.org/2000/svg">
<path d="M29.9993 14.0767C16.6394 17.1082 6.66602 29.0561 6.66602 43.3333C6.66602 59.9019 20.0975 73.3333 36.666 73.3333C50.9433 73.3333 62.8911 63.3599 65.9226 50M46.6235 7.32481C59.7187 9.96516 70.0342 20.2806 72.6745 33.3759C73.4022 36.9851 70.3479 40 66.666 40H46.666C42.9841 40 39.9993 37.0152 39.9993 33.3333V13.3333C39.9993 9.6514 43.0142 6.59709 46.6235 7.32481Z" stroke="#5B6283" stroke-width="2" stroke-linecap="round"/>
<path d="M72.6752 33.3759C70.0348 20.2806 59.7194 9.96516 46.6241 7.32481C43.0148 6.59709 40 9.6514 40 13.3333V33.3333C40 37.0152 42.9848 40 46.6667 40H66.6667C70.3486 40 73.4029 36.9851 72.6752 33.3759Z" fill="#315BF0" stroke="white" stroke-width="2" stroke-linecap="round"/>
</svg>
