<svg width="12" height="10" viewBox="0 0 12 10" fill="none" xmlns="http://www.w3.org/2000/svg">
<path d="M9.4641 6C8.32731 7.96898 7.75891 8.95347 7.01684 9.28386C6.36957 9.57204 5.63043 9.57204 4.98316 9.28386C4.24109 8.95347 3.67269 7.96898 2.5359 6C1.39911 4.03102 0.830711 3.04653 0.91562 2.23868C0.98968 1.53404 1.35925 0.893915 1.93246 0.477457C2.58963 -9.97527e-07 3.72642 -8.98145e-07 6 -6.99382e-07C8.27358 -5.00619e-07 9.41038 -4.01238e-07 10.0675 0.477458C10.6407 0.893916 11.0103 1.53404 11.0844 2.23868C11.1693 3.04653 10.6009 4.03102 9.4641 6Z" fill="#F33B39"/>
</svg>
