<svg width="80" height="80" viewBox="0 0 80 80" fill="none" xmlns="http://www.w3.org/2000/svg">
<path d="M66.6653 59.9999H46.6653M66.6653 59.9999C70.3472 59.9999 73.3319 62.9847 73.3319 66.6666C73.3319 70.3485 70.3472 73.3333 66.6653 73.3333H46.6653C42.9834 73.3333 39.9986 70.3485 39.9986 66.6666C39.9986 62.9847 42.9834 59.9999 46.6653 59.9999M66.6653 59.9999C70.3472 59.9999 73.3319 57.0152 73.3319 53.3333C73.3319 49.6514 70.3472 46.6666 66.6653 46.6666H64.443M46.6653 59.9999C42.9834 59.9999 39.9986 57.0152 39.9986 53.3333C39.9986 49.6514 42.9834 46.6666 46.6653 46.6666H64.443M45.5834 73.3333H34.4138C20.7626 73.3333 11.1232 59.9593 15.4401 47.0087L18.7734 37.0087C21.4957 28.8418 29.1385 23.3333 37.7471 23.3333H42.2501C50.8587 23.3333 58.5015 28.8419 61.2237 37.0087L64.443 46.6666" stroke="#5B6283" stroke-width="2" stroke-linejoin="round"/>
<path d="M40 66.6665C40 62.9846 42.9848 59.9998 46.6667 59.9998H66.6667C70.3486 59.9998 73.3333 62.9846 73.3333 66.6665C73.3333 70.3484 70.3486 73.3332 66.6667 73.3332H46.6667C42.9848 73.3332 40 70.3484 40 66.6665Z" fill="#315BF0"/>
<path d="M40 53.3332C40 49.6513 42.9848 46.6665 46.6667 46.6665H64.4444H66.6667C70.3486 46.6665 73.3333 49.6513 73.3333 53.3332C73.3333 57.0151 70.3486 59.9998 66.6667 59.9998H46.6667C42.9848 59.9998 40 57.0151 40 53.3332Z" fill="#315BF0"/>
<path d="M66.6667 59.9998H46.6667M66.6667 59.9998C70.3486 59.9998 73.3333 62.9846 73.3333 66.6665C73.3333 70.3484 70.3486 73.3332 66.6667 73.3332H46.6667C42.9848 73.3332 40 70.3484 40 66.6665C40 62.9846 42.9848 59.9998 46.6667 59.9998M66.6667 59.9998C70.3486 59.9998 73.3333 57.0151 73.3333 53.3332C73.3333 49.6513 70.3486 46.6665 66.6667 46.6665H64.4444H46.6667C42.9848 46.6665 40 49.6513 40 53.3332C40 57.0151 42.9848 59.9998 46.6667 59.9998" stroke="white" stroke-width="2" stroke-linejoin="round"/>
<path d="M46.9523 23.3334L33.0464 23.3334L28.3761 17.9766C23.798 12.7255 29.1388 4.87667 35.8229 7.03291L38.9155 8.03055C39.6196 8.25769 40.3791 8.25769 41.0832 8.03055L44.1758 7.03291C50.8599 4.87667 56.2007 12.7255 51.6226 17.9766L46.9523 23.3334Z" stroke="#5B6283" stroke-width="2" stroke-linejoin="round"/>
</svg>
