<svg width="19" height="20" viewBox="0 0 19 20" fill="none" xmlns="http://www.w3.org/2000/svg">
<path fill-rule="evenodd" clip-rule="evenodd" d="M18.3331 4.04171C18.3331 5.81362 16.8967 7.25004 15.1248 7.25004C14.1153 7.25004 13.2147 6.78384 12.6266 6.055C12.606 6.06825 12.5844 6.08053 12.562 6.09175L6.38579 9.17984C6.36356 9.19096 6.34101 9.20075 6.31823 9.20926C6.38235 9.46222 6.41642 9.72715 6.41642 10C6.41642 10.2729 6.38235 10.5379 6.31823 10.7908C6.34101 10.7993 6.36356 10.8091 6.38579 10.8202L12.562 13.9083C12.5844 13.9196 12.606 13.9318 12.6266 13.9451C13.2147 13.2162 14.1153 12.75 15.1248 12.75C16.8967 12.75 18.3331 14.1865 18.3331 15.9584C18.3331 17.7303 16.8967 19.1667 15.1248 19.1667C13.3528 19.1667 11.9164 17.7303 11.9164 15.9584C11.9164 15.6855 11.9505 15.4206 12.0146 15.1676C11.9918 15.1591 11.9693 15.1493 11.947 15.1382L5.77087 12.0501C5.74844 12.0389 5.72688 12.0266 5.70624 12.0133C5.11811 12.7422 4.21755 13.2084 3.20809 13.2084C1.43618 13.2084 -0.000244141 11.772 -0.000244141 10C-0.000244141 8.22813 1.43618 6.79171 3.20809 6.79171C4.21755 6.79171 5.11812 7.25791 5.70624 7.98675C5.72689 7.9735 5.74844 7.96122 5.77087 7.95L11.947 4.86192C11.9693 4.8508 11.9918 4.841 12.0146 4.83249C11.9505 4.57953 11.9164 4.3146 11.9164 4.04171C11.9164 2.26979 13.3528 0.833374 15.1248 0.833374C16.8967 0.833374 18.3331 2.26979 18.3331 4.04171Z" fill="white"/>
</svg>
