<svg width="20" height="20" viewBox="0 0 20 20" fill="none" xmlns="http://www.w3.org/2000/svg">
<path fill-rule="evenodd" clip-rule="evenodd" d="M4.10864 14.1415C4.10864 12.6349 7.53317 11.4146 11.7588 11.4146C15.9843 11.4146 19.41 12.6348 19.41 14.1415V16.6468C19.41 18.1534 15.9843 19.3737 11.7588 19.3737C7.53317 19.3737 4.10864 18.1535 4.10864 16.6468V14.1415Z" fill="#FE9923"/>
<path fill-rule="evenodd" clip-rule="evenodd" d="M11.7588 11.4146C15.9843 11.4146 19.41 12.6348 19.41 14.1415C19.41 15.6469 15.9843 16.8684 11.7588 16.8684C7.53317 16.8684 4.10864 15.647 4.10864 14.1415C4.10864 12.6349 7.53317 11.4146 11.7588 11.4146Z" fill="#FECD3D"/>
<path fill-rule="evenodd" clip-rule="evenodd" d="M11.759 11.4146C13.0451 11.4146 14.2575 11.5271 15.321 11.727V11.9077C15.321 13.4143 11.8953 14.6346 7.67088 14.6346C6.3915 14.6346 5.186 14.5233 4.12592 14.3255C4.11462 14.2648 4.10891 14.2032 4.10889 14.1415C4.10885 12.6349 7.53338 11.4146 11.759 11.4146Z" fill="#CEA732"/>
<path fill-rule="evenodd" clip-rule="evenodd" d="M11.7588 12.6882C15.1208 12.6882 17.8455 13.3393 17.8455 14.1414C17.8455 14.9436 15.1208 15.5935 11.7588 15.5935C8.3979 15.5935 5.67212 14.9436 5.67212 14.1414C5.67212 13.3393 8.39786 12.6882 11.7588 12.6882Z" fill="#FEA832"/>
<path fill-rule="evenodd" clip-rule="evenodd" d="M11.7588 12.6882C12.8723 12.6882 13.9165 12.7598 14.8152 12.8848C13.712 13.9085 10.9294 14.6346 7.67071 14.6346C7.07306 14.6346 6.49247 14.6107 5.93458 14.5641C5.76415 14.4301 5.67212 14.288 5.67212 14.1415C5.67212 13.3393 8.39786 12.6882 11.7588 12.6882Z" fill="#CE8829"/>
<path d="M17.3411 17.1774V18.5113C17.5763 18.4215 17.7956 18.3272 17.9955 18.2261V17.1763L17.3411 17.1774ZM15.6311 18.9988C15.4142 19.0441 15.1963 19.085 14.9778 19.1215V17.8501L15.6311 17.8512V18.9988ZM13.2678 19.3203C13.053 19.3362 12.8349 19.3476 12.6144 19.3567V18.1432L13.2678 18.1454V19.3203ZM10.9044 19.3567C10.6829 19.3476 10.4647 19.3362 10.25 19.3203V18.1443H10.9044V19.3567ZM8.53999 19.1215C8.32141 19.085 8.10359 19.0441 7.88667 18.9987V17.85L8.53999 17.8512V19.1215ZM6.17667 18.5113C5.94147 18.4216 5.72218 18.3273 5.52222 18.2262V17.1774L6.17667 17.1763V18.5113Z" fill="#C85929"/>
<path fill-rule="evenodd" clip-rule="evenodd" d="M0.0195312 8.74782C0.0195312 7.24122 3.44519 6.01978 7.67078 6.01978C11.8952 6.01978 15.3209 7.24122 15.3209 8.74782V11.2532C15.3209 12.7586 11.8952 13.9801 7.67078 13.9801C3.44519 13.9801 0.0195312 12.7586 0.0195312 11.2532V8.74782Z" fill="#FE9923"/>
<path fill-rule="evenodd" clip-rule="evenodd" d="M7.67078 6.01978C11.8952 6.01978 15.3209 7.24122 15.3209 8.74782C15.3209 10.2533 11.8952 11.4747 7.67078 11.4747C3.44519 11.4747 0.0195312 10.2533 0.0195312 8.74782C0.0195312 7.24122 3.44519 6.01978 7.67078 6.01978Z" fill="#FECD3D"/>
<path fill-rule="evenodd" clip-rule="evenodd" d="M7.67089 6.01978C11.8953 6.01978 15.321 7.24122 15.321 8.74782C15.321 8.89552 15.288 9.04095 15.2233 9.18298C14.4155 9.27501 13.5542 9.32388 12.66 9.32388C7.99589 9.32388 4.2146 7.97634 4.2146 6.31407C5.2519 6.12657 6.42671 6.01978 7.67089 6.01978Z" fill="#CEA732"/>
<path fill-rule="evenodd" clip-rule="evenodd" d="M7.67066 7.29468C11.0316 7.29468 13.7573 7.94573 13.7573 8.74788C13.7573 9.55003 11.0316 10.2 7.67066 10.2C4.30863 10.2 1.58398 9.55003 1.58398 8.74788C1.58398 7.94573 4.30859 7.29468 7.67066 7.29468Z" fill="#FEA832"/>
<path fill-rule="evenodd" clip-rule="evenodd" d="M7.67073 7.29468C11.0316 7.29468 13.7574 7.94573 13.7574 8.74788C13.7574 8.94897 13.5847 9.14214 13.2723 9.31597C13.07 9.32167 12.8655 9.32394 12.6598 9.32394C9.13417 9.32394 6.11413 8.55472 4.84839 7.46054C5.69257 7.35487 6.65155 7.29468 7.67073 7.29468Z" fill="#CE8829"/>
<path d="M13.2529 11.7838V13.1178C13.4881 13.028 13.7074 12.9326 13.9073 12.8326V11.7827L13.2529 11.7838ZM11.5429 13.6052C11.3259 13.6505 11.1081 13.6914 10.8895 13.7279V12.4565L11.5429 12.4576V13.6052ZM9.17841 13.9267C8.96368 13.9426 8.74665 13.954 8.52509 13.9631V12.7496L9.17841 12.7508V13.9267ZM6.81509 13.9631C6.59466 13.954 6.37649 13.9426 6.16063 13.9267V12.7508L6.81509 12.7496V13.9631ZM4.45063 13.7279C4.23207 13.6913 4.01426 13.6504 3.79731 13.6052V12.4565L4.45063 12.4576V13.7279ZM2.08845 13.1178C1.85212 13.028 1.63396 12.9326 1.43286 12.8326V11.7838L2.08845 11.7827V13.1178Z" fill="#C85929"/>
<path d="M19.3943 9.17625V9.76367H19.9806V10.325H19.3943V10.9113H18.833V10.325H18.2467V9.76367H18.833V9.17625H19.3943ZM1.80008 15.1345V15.7208H2.38637V16.2821H1.80008V16.8684H1.23879V16.2821H0.651367V15.7208H1.23879V15.1345H1.80008ZM1.80008 2.86914V3.45543H2.38637V4.01672H1.80008V4.60414H1.23879V4.01672H0.651367V3.45543H1.23879V2.86914H1.80008Z" fill="#FEA832"/>
<path fill-rule="evenodd" clip-rule="evenodd" d="M4.10864 3.35313C4.10864 1.84767 7.53317 0.626221 11.7588 0.626221C15.9843 0.626221 19.41 1.84763 19.41 3.35313V5.85962C19.41 7.36509 15.9843 8.58653 11.7588 8.58653C7.53317 8.58653 4.10864 7.36513 4.10864 5.85962V3.35313Z" fill="#FE9923"/>
<path fill-rule="evenodd" clip-rule="evenodd" d="M11.7588 0.626221C15.9843 0.626221 19.41 1.84763 19.41 3.35314C19.41 4.85974 15.9843 6.08118 11.7588 6.08118C7.53317 6.08118 4.10864 4.85974 4.10864 3.35314C4.10864 1.84767 7.53317 0.626221 11.7588 0.626221Z" fill="#FECD3D"/>
<path fill-rule="evenodd" clip-rule="evenodd" d="M11.7588 1.90112C15.1208 1.90112 17.8455 2.55105 17.8455 3.35319C17.8455 4.15651 15.1208 4.8064 11.7588 4.8064C8.3979 4.8064 5.67212 4.15647 5.67212 3.35319C5.67212 2.55105 8.39786 1.90112 11.7588 1.90112Z" fill="#FEA832"/>
<path d="M17.3411 6.39029V7.7242C17.5763 7.63443 17.7956 7.539 17.9955 7.439V6.38916L17.3411 6.39029ZM15.6311 8.21162C15.4143 8.25711 15.1964 8.29764 14.9778 8.33318V7.06291L15.6311 7.06404V8.21162ZM13.2678 8.53318C13.053 8.54795 12.8349 8.56045 12.6144 8.56955V7.35607L13.2678 7.35721V8.53318ZM10.9044 8.56955C10.6861 8.56044 10.468 8.54832 10.25 8.53318V7.35721L10.9044 7.35607V8.56955ZM8.53999 8.33318C8.32132 8.29762 8.10349 8.25709 7.88667 8.21162V7.06291L8.53999 7.06404V8.33318ZM6.17667 7.7242C5.94147 7.63443 5.72218 7.539 5.52222 7.439V6.39029L6.17667 6.38916V7.7242Z" fill="#C85929"/>
</svg>
