<svg width="19" height="20" viewBox="0 0 19 20" fill="none" xmlns="http://www.w3.org/2000/svg">
<path fill-rule="evenodd" clip-rule="evenodd" d="M15.3332 0.833374H9.83316C8.29436 0.833374 6.97696 1.78129 6.43302 3.12504H18.7333C18.1894 1.78129 16.872 0.833374 15.3332 0.833374ZM0.666504 13.6667V10H4.33317C5.34569 10 6.1665 10.8209 6.1665 11.8334C6.1665 12.8459 5.34569 13.6667 4.33317 13.6667H0.666504ZM4.33317 4.50004H18.9998V11.75C18.9998 12.3023 18.5521 12.75 17.9998 12.75H15.6665C13.4574 12.75 11.6665 14.5409 11.6665 16.75V18.1667C11.6665 18.719 11.2188 19.1667 10.6665 19.1667H4.33317C2.30813 19.1667 0.666504 17.5251 0.666504 15.5V15.0417H4.33317C6.10508 15.0417 7.5415 13.6053 7.5415 11.8334C7.5415 10.0615 6.10508 8.62504 4.33317 8.62504L0.666504 8.62504V8.16671C0.666504 6.14166 2.30813 4.50004 4.33317 4.50004ZM16.9373 15.5C16.9373 15.1203 16.6295 14.8125 16.2498 14.8125C15.8701 14.8125 15.5623 15.1203 15.5623 15.5V16.6459H14.4165C14.0368 16.6459 13.729 16.9537 13.729 17.3334C13.729 17.7131 14.0368 18.0209 14.4165 18.0209H15.5623V19.1667C15.5623 19.5464 15.8701 19.8542 16.2498 19.8542C16.6295 19.8542 16.9373 19.5464 16.9373 19.1667V18.0209H18.0832C18.4629 18.0209 18.7707 17.7131 18.7707 17.3334C18.7707 16.9537 18.4629 16.6459 18.0832 16.6459H16.9373V15.5Z" fill="white"/>
</svg>
