<svg width="80" height="80" viewBox="0 0 80 80" fill="none" xmlns="http://www.w3.org/2000/svg">
<path d="M73.3335 60L53.3335 60" stroke="white" stroke-width="2" stroke-linecap="round" stroke-linejoin="round"/>
<path d="M73.3335 46.6667V20H20.0002C12.6364 20 6.66683 25.9695 6.66683 33.3333V60C6.66683 67.3638 12.6364 73.3333 20.0002 73.3333H46.6668" stroke="#5B6283" stroke-width="2" stroke-linecap="round" stroke-linejoin="round"/>
<path d="M73.333 20.0001C73.333 12.6363 67.3635 6.66675 59.9997 6.66675H39.9997C32.6359 6.66675 26.6663 12.6363 26.6663 20.0001H73.333Z" fill="#315BF0" stroke="white" stroke-width="2" stroke-linejoin="round"/>
<path d="M6.6665 40L6.6665 53.3333L19.9998 53.3333C23.6817 53.3333 26.6665 50.3486 26.6665 46.6667V46.6667C26.6665 42.9848 23.6817 40 19.9998 40L6.6665 40Z" stroke="#5B6283" stroke-width="2" stroke-linejoin="round"/>
</svg>
