<svg width="22" height="22" viewBox="0 0 22 22" fill="none" xmlns="http://www.w3.org/2000/svg">
<path d="M19.3783 9.0752H11.6233V12.4394L13.0624 11.0002C13.3283 10.7344 13.7683 10.7344 14.0341 11.0002C14.2999 11.266 14.2999 11.706 14.0341 11.9719L11.4216 14.5752C11.1558 14.841 10.7158 14.841 10.4499 14.5752L7.83742 11.9719C7.69992 11.8344 7.63575 11.6602 7.63575 11.486C7.63575 11.3119 7.70909 11.1377 7.84659 11.0002C8.11242 10.7344 8.55242 10.7344 8.81825 11.0002L10.2483 12.4302V9.0752H2.62159C2.18159 9.0752 1.83325 9.42353 1.83325 9.86353C1.83325 15.2627 5.60075 19.0302 10.9999 19.0302C16.3991 19.0302 20.1666 15.2627 20.1666 9.86353C20.1666 9.42353 19.8183 9.0752 19.3783 9.0752Z" fill="white"/>
<path d="M11.6233 3.65723C11.6233 3.28139 11.3116 2.96973 10.9358 2.96973C10.56 2.96973 10.2483 3.28139 10.2483 3.65723V9.06556H11.6233V3.65723Z" fill="white"/>
</svg>
